<svg version="1.1" viewBox="0.0 0.0 600.0 371.0" fill="none" stroke="none" stroke-linecap="square" stroke-miterlimit="10" width="600" height="371" xmlns:xlink="http://www.w3.org/1999/xlink" xmlns="http://www.w3.org/2000/svg"><path fill="#ffffff" d="M0 0L600.0 0L600.0 371.0L0 371.0L0 0Z" fill-rule="nonzero"/><path stroke="#333333" stroke-width="1.0" stroke-linecap="butt" d="M77.5 266.5L581.5 266.5" fill-rule="nonzero"/><path stroke="#cccccc" stroke-width="1.0" stroke-linecap="butt" d="M77.5 225.5L581.5 225.5" fill-rule="nonzero"/><path stroke="#cccccc" stroke-width="1.0" stroke-linecap="butt" d="M77.5 184.5L581.5 184.5" fill-rule="nonzero"/><path stroke="#cccccc" stroke-width="1.0" stroke-linecap="butt" d="M77.5 143.5L581.5 143.5" fill-rule="nonzero"/><path stroke="#cccccc" stroke-width="1.0" stroke-linecap="butt" d="M77.5 102.5L581.5 102.5" fill-rule="nonzero"/><path stroke="#cccccc" stroke-width="1.0" stroke-linecap="butt" d="M77.5 61.5L581.5 61.5" fill-rule="nonzero"/><clipPath id="id_0"><path d="M77.55 61.916668L581.45 61.916668L581.45 266.36673L77.55 266.36673L77.55 61.916668Z" clip-rule="nonzero"/></clipPath><path stroke="#000000" stroke-width="2.0" stroke-linecap="butt" stroke-opacity="0.0" clip-path="url(#id_0)" d="M116.0 266.0L91.0 266.0L91.0 161.0C91.0 159.89543 91.89543 159.0 93.0 159.0L114.0 159.0C115.10457 159.0 116.0 159.89543 116.0 161.0Z" fill-rule="nonzero"/><path fill="#4285f4" clip-path="url(#id_0)" d="M116.0 266.0L91.0 266.0L91.0 161.0C91.0 159.89543 91.89543 159.0 93.0 159.0L114.0 159.0C115.10457 159.0 116.0 159.89543 116.0 161.0Z" fill-rule="nonzero"/><path stroke="#000000" stroke-width="2.0" stroke-linecap="butt" stroke-opacity="0.0" clip-path="url(#id_0)" d="M154.0 266.0L129.0 266.0L129.0 91.0C129.0 89.89543 129.89543 89.0 131.0 89.0L152.0 89.0C153.10457 89.0 154.0 89.89543 154.0 91.0Z" fill-rule="nonzero"/><path fill="#4285f4" clip-path="url(#id_0)" d="M154.0 266.0L129.0 266.0L129.0 91.0C129.0 89.89543 129.89543 89.0 131.0 89.0L152.0 89.0C153.10457 89.0 154.0 89.89543 154.0 91.0Z" fill-rule="nonzero"/><path stroke="#000000" stroke-width="2.0" stroke-linecap="butt" stroke-opacity="0.0" clip-path="url(#id_0)" d="M192.0 266.0L167.0 266.0L167.0 141.0C167.0 139.89543 167.89543 139.0 169.0 139.0L190.0 139.0C191.10457 139.0 192.0 139.89543 192.0 141.0Z" fill-rule="nonzero"/><path fill="#4285f4" clip-path="url(#id_0)" d="M192.0 266.0L167.0 266.0L167.0 141.0C167.0 139.89543 167.89543 139.0 169.0 139.0L190.0 139.0C191.10457 139.0 192.0 139.89543 192.0 141.0Z" fill-rule="nonzero"/><path stroke="#000000" stroke-width="2.0" stroke-linecap="butt" stroke-opacity="0.0" clip-path="url(#id_0)" d="M229.0 266.0L204.0 266.0L204.0 78.0C204.0 76.89543 204.89543 76.0 206.0 76.0L227.0 76.0C228.10457 76.0 229.0 76.89543 229.0 78.0Z" fill-rule="nonzero"/><path fill="#4285f4" clip-path="url(#id_0)" d="M229.0 266.0L204.0 266.0L204.0 78.0C204.0 76.89543 204.89543 76.0 206.0 76.0L227.0 76.0C228.10457 76.0 229.0 76.89543 229.0 78.0Z" fill-rule="nonzero"/><path stroke="#000000" stroke-width="2.0" stroke-linecap="butt" stroke-opacity="0.0" clip-path="url(#id_0)" d="M267.0 266.0L242.0 266.0L242.0 164.0C242.0 162.89543 242.89543 162.0 244.0 162.0L265.0 162.0C266.10458 162.0 267.0 162.89543 267.0 164.0Z" fill-rule="nonzero"/><path fill="#4285f4" clip-path="url(#id_0)" d="M267.0 266.0L242.0 266.0L242.0 164.0C242.0 162.89543 242.89543 162.0 244.0 162.0L265.0 162.0C266.10458 162.0 267.0 162.89543 267.0 164.0Z" fill-rule="nonzero"/><path stroke="#000000" stroke-width="2.0" stroke-linecap="butt" stroke-opacity="0.0" clip-path="url(#id_0)" d="M305.0 266.0L280.0 266.0L280.0 161.0C280.0 159.89543 280.89542 159.0 282.0 159.0L303.0 159.0C304.10458 159.0 305.0 159.89543 305.0 161.0Z" fill-rule="nonzero"/><path fill="#4285f4" clip-path="url(#id_0)" d="M305.0 266.0L280.0 266.0L280.0 161.0C280.0 159.89543 280.89542 159.0 282.0 159.0L303.0 159.0C304.10458 159.0 305.0 159.89543 305.0 161.0Z" fill-rule="nonzero"/><path stroke="#000000" stroke-width="2.0" stroke-linecap="butt" stroke-opacity="0.0" clip-path="url(#id_0)" d="M343.0 266.0L318.0 266.0L318.0 124.0C318.0 122.89543 318.89542 122.0 320.0 122.0L341.0 122.0C342.10458 122.0 343.0 122.89543 343.0 124.0Z" fill-rule="nonzero"/><path fill="#4285f4" clip-path="url(#id_0)" d="M343.0 266.0L318.0 266.0L318.0 124.0C318.0 122.89543 318.89542 122.0 320.0 122.0L341.0 122.0C342.10458 122.0 343.0 122.89543 343.0 124.0Z" fill-rule="nonzero"/><path stroke="#000000" stroke-width="2.0" stroke-linecap="butt" stroke-opacity="0.0" clip-path="url(#id_0)" d="M380.0 266.0L355.0 266.0L355.0 79.0C355.0 77.89543 355.89542 77.0 357.0 77.0L378.0 77.0C379.10458 77.0 380.0 77.89543 380.0 79.0Z" fill-rule="nonzero"/><path fill="#4285f4" clip-path="url(#id_0)" d="M380.0 266.0L355.0 266.0L355.0 79.0C355.0 77.89543 355.89542 77.0 357.0 77.0L378.0 77.0C379.10458 77.0 380.0 77.89543 380.0 79.0Z" fill-rule="nonzero"/><path stroke="#000000" stroke-width="2.0" stroke-linecap="butt" stroke-opacity="0.0" clip-path="url(#id_0)" d="M418.0 266.0L393.0 266.0L393.0 202.0C393.0 200.89543 393.89542 200.0 395.0 200.0L416.0 200.0C417.10458 200.0 418.0 200.89543 418.0 202.0Z" fill-rule="nonzero"/><path fill="#4285f4" clip-path="url(#id_0)" d="M418.0 266.0L393.0 266.0L393.0 202.0C393.0 200.89543 393.89542 200.0 395.0 200.0L416.0 200.0C417.10458 200.0 418.0 200.89543 418.0 202.0Z" fill-rule="nonzero"/><path stroke="#000000" stroke-width="2.0" stroke-linecap="butt" stroke-opacity="0.0" clip-path="url(#id_0)" d="M456.0 266.0L431.0 266.0L431.0 227.0C431.0 225.89543 431.89542 225.0 433.0 225.0L454.0 225.0C455.10458 225.0 456.0 225.89543 456.0 227.0Z" fill-rule="nonzero"/><path fill="#4285f4" clip-path="url(#id_0)" d="M456.0 266.0L431.0 266.0L431.0 227.0C431.0 225.89543 431.89542 225.0 433.0 225.0L454.0 225.0C455.10458 225.0 456.0 225.89543 456.0 227.0Z" fill-rule="nonzero"/><path stroke="#000000" stroke-width="2.0" stroke-linecap="butt" stroke-opacity="0.0" clip-path="url(#id_0)" d="M493.0 266.0L468.0 266.0L468.0 246.0C468.0 244.89543 468.89542 244.0 470.0 244.0L491.0 244.0C492.10458 244.0 493.0 244.89543 493.0 246.0Z" fill-rule="nonzero"/><path fill="#4285f4" clip-path="url(#id_0)" d="M493.0 266.0L468.0 266.0L468.0 246.0C468.0 244.89543 468.89542 244.0 470.0 244.0L491.0 244.0C492.10458 244.0 493.0 244.89543 493.0 246.0Z" fill-rule="nonzero"/><path stroke="#000000" stroke-width="2.0" stroke-linecap="butt" stroke-opacity="0.0" clip-path="url(#id_0)" d="M531.0 266.0L506.0 266.0L506.0 166.0C506.0 164.89543 506.89542 164.0 508.0 164.0L529.0 164.0C530.10455 164.0 531.0 164.89543 531.0 166.0Z" fill-rule="nonzero"/><path fill="#4285f4" clip-path="url(#id_0)" d="M531.0 266.0L506.0 266.0L506.0 166.0C506.0 164.89543 506.89542 164.0 508.0 164.0L529.0 164.0C530.10455 164.0 531.0 164.89543 531.0 166.0Z" fill-rule="nonzero"/><path stroke="#000000" stroke-width="2.0" stroke-linecap="butt" stroke-opacity="0.0" clip-path="url(#id_0)" d="M569.0 266.0L544.0 266.0L544.0 231.0C544.0 229.89543 544.89545 229.0 546.0 229.0L567.0 229.0C568.10455 229.0 569.0 229.89543 569.0 231.0Z" fill-rule="nonzero"/><path fill="#4285f4" clip-path="url(#id_0)" d="M569.0 266.0L544.0 266.0L544.0 231.0C544.0 229.89543 544.89545 229.0 546.0 229.0L567.0 229.0C568.10455 229.0 569.0 229.89543 569.0 231.0Z" fill-rule="nonzero"/><path fill="#000000" d="M313.89062 349.45L313.89062 340.85626L315.60938 340.85626L317.64062 346.9344Q317.92188 347.79376 318.04688 348.21564Q318.1875 347.7469 318.5 346.84064L320.5625 340.85626L322.09375 340.85626L322.09375 349.45L321.0 349.45L321.0 342.2625L318.5 349.45L317.46875 349.45L314.98438 342.1375L314.98438 349.45L313.89062 349.45ZM322.40625 346.34064Q322.40625 344.60626 323.35938 343.77814Q324.15625 343.09064 325.3125 343.09064Q326.59375 343.09064 327.40625 343.9344Q328.23438 344.7625 328.23438 346.2469Q328.23438 347.45 327.875 348.1375Q327.51562 348.825 326.8125 349.21564Q326.125 349.59064 325.3125 349.59064Q324.01562 349.59064 323.20312 348.7625Q322.40625 347.91876 322.40625 346.34064ZM323.48438 346.34064Q323.48438 347.52814 324.0 348.1219Q324.53125 348.71564 325.3125 348.71564Q326.10938 348.71564 326.625 348.1219Q327.14062 347.52814 327.14062 346.3094Q327.14062 345.15314 326.60938 344.5594Q326.09375 343.96564 325.3125 343.96564Q324.53125 343.96564 324.0 344.5594Q323.48438 345.1375 323.48438 346.34064ZM329.79688 349.45L329.79688 343.23126L330.73438 343.23126L330.73438 344.10626Q331.42188 343.09064 332.71875 343.09064Q333.28125 343.09064 333.75 343.29376Q334.23438 343.4969 334.46875 343.825Q334.70312 344.15314 334.79688 344.59064Q334.84375 344.8875 334.84375 345.6219L334.84375 349.45L333.79688 349.45L333.79688 345.66876Q333.79688 345.0125 333.67188 344.7Q333.54688 344.3875 333.23438 344.2Q332.92188 343.9969 332.5 343.9969Q331.82812 343.9969 331.32812 344.4344Q330.84375 344.85626 330.84375 346.04376L330.84375 349.45L329.79688 349.45ZM339.09375 348.5125L339.25 349.4344Q338.79688 349.52814 338.45312 349.52814Q337.875 349.52814 337.5625 349.35626Q337.25 349.16876 337.10938 348.8719Q336.98438 348.575 336.98438 347.6219L336.98438 344.04376L336.21875 344.04376L336.21875 343.23126L336.98438 343.23126L336.98438 341.6844L338.03125 341.0594L338.03125 343.23126L339.09375 343.23126L339.09375 344.04376L338.03125 344.04376L338.03125 347.6844Q338.03125 348.1375 338.07812 348.2625Q338.14062 348.3875 338.26562 348.46564Q338.39062 348.54376 338.625 348.54376Q338.8125 348.54376 339.09375 348.5125ZM339.79688 349.45L339.79688 340.85626L340.84375 340.85626L340.84375 343.9344Q341.57812 343.09064 342.70312 343.09064Q343.40625 343.09064 343.90625 343.3719Q344.42188 343.6375 344.64062 344.1219Q344.85938 344.59064 344.85938 345.5125L344.85938 349.45L343.8125 349.45L343.8125 345.5125Q343.8125 344.71564 343.46875 344.35626Q343.125 343.9969 342.5 343.9969Q342.03125 343.9969 341.60938 344.2469Q341.20312 344.48126 341.01562 344.90314Q340.84375 345.3094 340.84375 346.04376L340.84375 349.45L339.79688 349.45Z" fill-rule="nonzero"/><path fill="#000000" d="M29.550013 233.21458L20.956263 233.21458L20.956263 232.08958L24.487513 232.08958L24.487513 227.62083L20.956263 227.62083L20.956263 226.48021L29.550013 226.48021L29.550013 227.62083L25.503138 227.62083L25.503138 232.08958L29.550013 232.08958L29.550013 233.21458ZM26.440638 224.77708Q24.706263 224.77708 23.878138 223.82396Q23.190638 223.02708 23.190638 221.87083Q23.190638 220.58958 24.034388 219.77708Q24.862513 218.94896 26.346888 218.94896Q27.550013 218.94896 28.237513 219.30833Q28.925013 219.66771 29.315638 220.37083Q29.690638 221.05833 29.690638 221.87083Q29.690638 223.16771 28.862513 223.98021Q28.018763 224.77708 26.440638 224.77708ZM26.440638 223.69896Q27.628138 223.69896 28.221888 223.18333Q28.815638 222.65208 28.815638 221.87083Q28.815638 221.07396 28.221888 220.55833Q27.628138 220.04271 26.409388 220.04271Q25.253138 220.04271 24.659388 220.57396Q24.065638 221.08958 24.065638 221.87083Q24.065638 222.65208 24.659388 223.18333Q25.237513 223.69896 26.440638 223.69896ZM29.550013 213.30833L28.628138 213.30833Q29.690638 214.04271 29.690638 215.29271Q29.690638 215.83958 29.487513 216.32396Q29.268763 216.79271 28.956263 217.02708Q28.628138 217.26146 28.159388 217.35521Q27.862513 217.41771 27.175013 217.41771L23.331263 217.41771L23.331263 216.35521L26.784388 216.35521Q27.596888 216.35521 27.893763 216.29271Q28.300013 216.19896 28.550013 215.88646Q28.784388 215.55833 28.784388 215.07396Q28.784388 214.60521 28.550013 214.19896Q28.300013 213.77708 27.878138 213.60521Q27.456263 213.41771 26.659388 213.41771L23.331263 213.41771L23.331263 212.37083L29.550013 212.37083L29.550013 213.30833ZM29.550013 210.40208L23.331263 210.40208L23.331263 209.44896L24.268763 209.44896Q23.612513 209.08958 23.409388 208.79271Q23.190638 208.48021 23.190638 208.10521Q23.190638 207.57396 23.518763 207.02708L24.503138 207.38646Q24.268763 207.77708 24.268763 208.15208Q24.268763 208.51146 24.487513 208.79271Q24.690638 209.05833 25.065638 209.16771Q25.628138 209.35521 26.284388 209.35521L29.550013 209.35521L29.550013 210.40208ZM27.690638 206.80833L27.534388 205.77708Q28.159388 205.68333 28.487513 205.29271Q28.815638 204.88646 28.815638 204.15208Q28.815638 203.43333 28.534388 203.08958Q28.237513 202.73021 27.831263 202.73021Q27.471888 202.73021 27.268763 203.04271Q27.128138 203.26146 26.909388 204.12083Q26.612513 205.27708 26.409388 205.73021Q26.190638 206.16771 25.815638 206.40208Q25.440638 206.63646 24.971888 206.63646Q24.565638 206.63646 24.206263 206.44896Q23.846888 206.26146 23.612513 205.93333Q23.440638 205.68333 23.315638 205.26146Q23.190638 204.83958 23.190638 204.33958Q23.190638 203.62083 23.409388 203.07396Q23.612513 202.51146 23.971888 202.24583Q24.331263 201.98021 24.925013 201.88646L25.065638 202.91771Q24.596888 202.98021 24.331263 203.32396Q24.050013 203.65208 24.050013 204.27708Q24.050013 204.99583 24.300013 205.30833Q24.534388 205.62083 24.862513 205.62083Q25.065638 205.62083 25.221888 205.49583Q25.393763 205.35521 25.503138 205.08958Q25.565638 204.93333 25.768763 204.15208Q26.081263 203.02708 26.268763 202.58958Q26.456263 202.15208 26.815638 201.90208Q27.175013 201.65208 27.721888 201.65208Q28.253138 201.65208 28.721888 201.96458Q29.175013 202.26146 29.440638 202.83958Q29.690638 203.41771 29.690638 204.15208Q29.690638 205.37083 29.190638 206.01146Q28.675013 206.63646 27.690638 206.80833ZM31.940638 196.38646L23.331263 196.38646L23.331263 195.43333L24.128138 195.43333Q23.659388 195.08958 23.425013 194.66771Q23.190638 194.23021 23.190638 193.62083Q23.190638 192.82396 23.596888 192.21458Q24.003138 191.60521 24.753138 191.30833Q25.503138 190.99583 26.393763 190.99583Q27.346888 190.99583 28.112513 191.33958Q28.878138 191.66771 29.284388 192.32396Q29.690638 192.98021 29.690638 193.69896Q29.690638 194.23021 29.471888 194.65208Q29.237513 195.07396 28.909388 195.33958L31.940638 195.33958L31.940638 196.38646ZM26.471888 195.43333Q27.675013 195.43333 28.253138 194.94896Q28.815638 194.46458 28.815638 193.77708Q28.815638 193.07396 28.221888 192.57396Q27.628138 192.07396 26.378138 192.07396Q25.190638 192.07396 24.612513 192.55833Q24.018763 193.04271 24.018763 193.73021Q24.018763 194.40208 24.643763 194.91771Q25.268763 195.43333 26.471888 195.43333ZM27.550013 185.13646L27.675013 184.04271Q28.628138 184.29271 29.159388 184.99583Q29.690638 185.69896 29.690638 186.77708Q29.690638 188.13646 28.846888 188.94896Q28.003138 189.74583 26.487513 189.74583Q24.925013 189.74583 24.065638 188.93333Q23.190638 188.12083 23.190638 186.83958Q23.190638 185.58958 24.034388 184.80833Q24.878138 184.01146 26.425013 184.01146Q26.518763 184.01146 26.706263 184.01146L26.706263 188.65208Q27.737513 188.58958 28.284388 188.07396Q28.815638 187.55833 28.815638 186.77708Q28.815638 186.19896 28.518763 185.79271Q28.206263 185.37083 27.550013 185.13646ZM25.846888 188.58958L25.846888 185.12083Q25.050013 185.18333 24.659388 185.51146Q24.050013 186.02708 24.050013 186.82396Q24.050013 187.55833 24.534388 188.05833Q25.018763 188.54271 25.846888 188.58958ZM29.550013 182.40208L23.331263 182.40208L23.331263 181.44896L24.268763 181.44896Q23.612513 181.08958 23.409388 180.79271Q23.190638 180.48021 23.190638 180.10521Q23.190638 179.57396 23.518763 179.02708L24.503138 179.38646Q24.268763 179.77708 24.268763 180.15208Q24.268763 180.51146 24.487513 180.79271Q24.690638 181.05833 25.065638 181.16771Q25.628138 181.35521 26.284388 181.35521L29.550013 181.35521L29.550013 182.40208ZM29.550013 175.38646L23.331263 175.38646L23.331263 174.44896L24.206263 174.44896Q23.737513 174.15208 23.471888 173.66771Q23.190638 173.18333 23.190638 172.55833Q23.190638 171.87083 23.471888 171.43333Q23.753138 170.98021 24.268763 170.80833Q23.190638 170.05833 23.190638 168.88646Q23.190638 167.94896 23.706263 167.46458Q24.206263 166.96458 25.284388 166.96458L29.550013 166.96458L29.550013 168.01146L25.628138 168.01146Q25.003138 168.01146 24.721888 168.12083Q24.440638 168.21458 24.268763 168.48021Q24.096888 168.74583 24.096888 169.12083Q24.096888 169.77708 24.534388 170.21458Q24.971888 170.63646 25.940638 170.63646L29.550013 170.63646L29.550013 171.69896L25.503138 171.69896Q24.800013 171.69896 24.456263 171.96458Q24.096888 172.21458 24.096888 172.79271Q24.096888 173.24583 24.331263 173.62083Q24.565638 173.99583 25.018763 174.16771Q25.471888 174.33958 26.315638 174.33958L29.550013 174.33958L29.550013 175.38646ZM26.440638 164.77708Q24.706263 164.77708 23.878138 163.82396Q23.190638 163.02708 23.190638 161.87083Q23.190638 160.58958 24.034388 159.77708Q24.862513 158.94896 26.346888 158.94896Q27.550013 158.94896 28.237513 159.30833Q28.925013 159.66771 29.315638 160.37083Q29.690638 161.05833 29.690638 161.87083Q29.690638 163.16771 28.862513 163.98021Q28.018763 164.77708 26.440638 164.77708ZM26.440638 163.69896Q27.628138 163.69896 28.221888 163.18333Q28.815638 162.65208 28.815638 161.87083Q28.815638 161.07396 28.221888 160.55833Q27.628138 160.04271 26.409388 160.04271Q25.253138 160.04271 24.659388 160.57396Q24.065638 161.08958 24.065638 161.87083Q24.065638 162.65208 24.659388 163.18333Q25.237513 163.69896 26.440638 163.69896ZM29.550013 157.38646L23.331263 157.38646L23.331263 156.44896L24.206263 156.44896Q23.190638 155.76146 23.190638 154.46458Q23.190638 153.90208 23.393763 153.43333Q23.596888 152.94896 23.925013 152.71458Q24.253138 152.48021 24.690638 152.38646Q24.987513 152.33958 25.721888 152.33958L29.550013 152.33958L29.550013 153.38646L25.768763 153.38646Q25.112513 153.38646 24.800013 153.51146Q24.487513 153.63646 24.300013 153.94896Q24.096888 154.26146 24.096888 154.68333Q24.096888 155.35521 24.534388 155.85521Q24.956263 156.33958 26.143763 156.33958L29.550013 156.33958L29.550013 157.38646ZM28.612513 148.08958L29.534388 147.93333Q29.628138 148.38646 29.628138 148.73021Q29.628138 149.30833 29.456263 149.62083Q29.268763 149.93333 28.971888 150.07396Q28.675013 150.19896 27.721888 150.19896L24.143763 150.19896L24.143763 150.96458L23.331263 150.96458L23.331263 150.19896L21.784388 150.19896L21.159388 149.15208L23.331263 149.15208L23.331263 148.08958L24.143763 148.08958L24.143763 149.15208L27.784388 149.15208Q28.237513 149.15208 28.362513 149.10521Q28.487513 149.04271 28.565638 148.91771Q28.643763 148.79271 28.643763 148.55833Q28.643763 148.37083 28.612513 148.08958ZM29.550013 147.38646L20.956263 147.38646L20.956263 146.33958L24.034388 146.33958Q23.190638 145.60521 23.190638 144.48021Q23.190638 143.77708 23.471888 143.27708Q23.737513 142.76146 24.221888 142.54271Q24.690638 142.32396 25.612513 142.32396L29.550013 142.32396L29.550013 143.37083L25.612513 143.37083Q24.815638 143.37083 24.456263 143.71458Q24.096888 144.05833 24.096888 144.68333Q24.096888 145.15208 24.346888 145.57396Q24.581263 145.98021 25.003138 146.16771Q25.409388 146.33958 26.143763 146.33958L29.550013 146.33958L29.550013 147.38646Z" fill-rule="nonzero"/><path fill="#000000" d="M65.05 266.13235Q65.05 264.6011 65.3625 263.67923Q65.675 262.74173 66.28438 262.24173Q66.90938 261.74173 67.84688 261.74173Q68.53438 261.74173 69.05 262.02298Q69.58125 262.30423 69.925 262.83548Q70.26875 263.3511 70.45625 264.1011Q70.64375 264.8511 70.64375 266.13235Q70.64375 267.64798 70.33125 268.56985Q70.03438 269.49173 69.40938 270.00735Q68.8 270.50735 67.84688 270.50735Q66.6125 270.50735 65.89375 269.61673Q65.05 268.55423 65.05 266.13235ZM66.12813 266.13235Q66.12813 268.24173 66.62813 268.94485Q67.12813 269.64798 67.84688 269.64798Q68.58125 269.64798 69.06563 268.94485Q69.56563 268.24173 69.56563 266.13235Q69.56563 264.00735 69.06563 263.31985Q68.58125 262.61673 67.83125 262.61673Q67.1125 262.61673 66.675 263.2261Q66.12813 264.00735 66.12813 266.13235Z" fill-rule="nonzero"/><path fill="#000000" d="M63.596874 228.4611L63.596874 229.47673L57.909374 229.47673Q57.909374 229.10173 58.034374 228.74236Q58.253124 228.16423 58.721874 227.60173Q59.20625 227.03923 60.1125 226.30486Q61.51875 225.1486 62.003124 224.47673Q62.503124 223.80486 62.503124 223.2111Q62.503124 222.5861 62.05 222.16423Q61.596874 221.72673 60.878124 221.72673Q60.1125 221.72673 59.659374 222.17986Q59.20625 222.63298 59.190624 223.44548L58.1125 223.3361Q58.221874 222.11736 58.940624 221.49236Q59.675 220.85173 60.909374 220.85173Q62.14375 220.85173 62.8625 221.53923Q63.58125 222.22673 63.58125 223.24236Q63.58125 223.75798 63.3625 224.25798Q63.159374 224.74236 62.659374 225.30486Q62.175 225.85173 61.05 226.80486Q60.096874 227.60173 59.815624 227.8986Q59.55 228.17986 59.378124 228.4611L63.596874 228.4611ZM65.05 227.22673L66.15938 227.13298Q66.28438 227.94548 66.72188 228.35173Q67.175 228.75798 67.81563 228.75798Q68.56563 228.75798 69.09688 228.17986Q69.62813 227.60173 69.62813 226.66423Q69.62813 225.75798 69.1125 225.24236Q68.6125 224.7111 67.78438 224.7111Q67.28438 224.7111 66.8625 224.94548Q66.45625 225.17986 66.22188 225.53923L65.2375 225.41423L66.06563 221.00798L70.34688 221.00798L70.34688 222.00798L66.90938 222.00798L66.45625 224.32048Q67.22188 223.7736 68.06563 223.7736Q69.19063 223.7736 69.95625 224.55486Q70.7375 225.3361 70.7375 226.57048Q70.7375 227.72673 70.06563 228.5861Q69.2375 229.61736 67.81563 229.61736Q66.64375 229.61736 65.89375 228.9611Q65.15938 228.30486 65.05 227.22673Z" fill-rule="nonzero"/><path fill="#000000" d="M58.05 186.33672L59.159374 186.24297Q59.284374 187.05547 59.721874 187.46172Q60.175 187.86797 60.815624 187.86797Q61.565624 187.86797 62.096874 187.28984Q62.628124 186.71172 62.628124 185.77422Q62.628124 184.86797 62.1125 184.35234Q61.6125 183.82109 60.784374 183.82109Q60.284374 183.82109 59.8625 184.05547Q59.45625 184.28984 59.221874 184.64922L58.2375 184.52422L59.065624 180.11797L63.346874 180.11797L63.346874 181.11797L59.909374 181.11797L59.45625 183.43047Q60.221874 182.88359 61.065624 182.88359Q62.190624 182.88359 62.95625 183.66484Q63.7375 184.44609 63.7375 185.68047Q63.7375 186.83672 63.065624 187.69609Q62.2375 188.72734 60.815624 188.72734Q59.64375 188.72734 58.89375 188.07109Q58.159374 187.41484 58.05 186.33672ZM65.05 184.35234Q65.05 182.82109 65.3625 181.89922Q65.675 180.96172 66.28438 180.46172Q66.90938 179.96172 67.84688 179.96172Q68.53438 179.96172 69.05 180.24297Q69.58125 180.52422 69.925 181.05547Q70.26875 181.57109 70.45625 182.32109Q70.64375 183.07109 70.64375 184.35234Q70.64375 185.86797 70.33125 186.78984Q70.03438 187.71172 69.40938 188.22734Q68.8 188.72734 67.84688 188.72734Q66.6125 188.72734 65.89375 187.83672Q65.05 186.77422 65.05 184.35234ZM66.12813 184.35234Q66.12813 186.46172 66.62813 187.16484Q67.12813 187.86797 67.84688 187.86797Q68.58125 187.86797 69.06563 187.16484Q69.56563 186.46172 69.56563 184.35234Q69.56563 182.22734 69.06563 181.53984Q68.58125 180.83672 67.83125 180.83672Q67.1125 180.83672 66.675 181.44609Q66.12813 182.22734 66.12813 184.35234Z" fill-rule="nonzero"/><path fill="#000000" d="M58.1125 140.22795L58.1125 139.21233L63.675 139.21233L63.675 140.04045Q62.8625 140.91545 62.05 142.36858Q61.253124 143.80608 60.815624 145.33733Q60.4875 146.41545 60.409374 147.6967L59.315624 147.6967Q59.33125 146.68108 59.70625 145.24358Q60.096874 143.80608 60.8 142.47795Q61.51875 141.14983 62.33125 140.22795L58.1125 140.22795ZM65.05 145.4467L66.15938 145.35295Q66.28438 146.16545 66.72188 146.5717Q67.175 146.97795 67.81563 146.97795Q68.56563 146.97795 69.09688 146.39983Q69.62813 145.8217 69.62813 144.8842Q69.62813 143.97795 69.1125 143.46233Q68.6125 142.93108 67.78438 142.93108Q67.28438 142.93108 66.8625 143.16545Q66.45625 143.39983 66.22188 143.7592L65.2375 143.6342L66.06563 139.22795L70.34688 139.22795L70.34688 140.22795L66.90938 140.22795L66.45625 142.54045Q67.22188 141.99358 68.06563 141.99358Q69.19063 141.99358 69.95625 142.77483Q70.7375 143.55608 70.7375 144.79045Q70.7375 145.9467 70.06563 146.80608Q69.2375 147.83733 67.81563 147.83733Q66.64375 147.83733 65.89375 147.18108Q65.15938 146.52483 65.05 145.4467Z" fill-rule="nonzero"/><path fill="#000000" d="M55.01875 106.80668L53.971874 106.80668L53.971874 100.08793Q53.58125 100.4473 52.95625 100.8223Q52.346874 101.18168 51.8625 101.35355L51.8625 100.33793Q52.7375 99.91605 53.39375 99.33793Q54.065624 98.74418 54.346874 98.18168L55.01875 98.18168L55.01875 106.80668ZM58.05 102.5723Q58.05 101.04105 58.3625 100.11918Q58.675 99.18168 59.284374 98.68168Q59.909374 98.18168 60.846874 98.18168Q61.534374 98.18168 62.05 98.46293Q62.58125 98.74418 62.925 99.27543Q63.26875 99.79105 63.45625 100.54105Q63.64375 101.29105 63.64375 102.5723Q63.64375 104.08793 63.33125 105.0098Q63.034374 105.93168 62.409374 106.4473Q61.8 106.9473 60.846874 106.9473Q59.6125 106.9473 58.89375 106.05668Q58.05 104.99418 58.05 102.5723ZM59.128124 102.5723Q59.128124 104.68168 59.628124 105.3848Q60.128124 106.08793 60.846874 106.08793Q61.58125 106.08793 62.065624 105.3848Q62.565624 104.68168 62.565624 102.5723Q62.565624 100.4473 62.065624 99.7598Q61.58125 99.05668 60.83125 99.05668Q60.1125 99.05668 59.675 99.66605Q59.128124 100.4473 59.128124 102.5723ZM65.05 102.5723Q65.05 101.04105 65.3625 100.11918Q65.675 99.18168 66.28438 98.68168Q66.90938 98.18168 67.84688 98.18168Q68.53438 98.18168 69.05 98.46293Q69.58125 98.74418 69.925 99.27543Q70.26875 99.79105 70.45625 100.54105Q70.64375 101.29105 70.64375 102.5723Q70.64375 104.08793 70.33125 105.0098Q70.03438 105.93168 69.40938 106.4473Q68.8 106.9473 67.84688 106.9473Q66.6125 106.9473 65.89375 106.05668Q65.05 104.99418 65.05 102.5723ZM66.12813 102.5723Q66.12813 104.68168 66.62813 105.3848Q67.12813 106.08793 67.84688 106.08793Q68.58125 106.08793 69.06563 105.3848Q69.56563 104.68168 69.56563 102.5723Q69.56563 100.4473 69.06563 99.7598Q68.58125 99.05668 67.83125 99.05668Q67.1125 99.05668 66.675 99.66605Q66.12813 100.4473 66.12813 102.5723Z" fill-rule="nonzero"/><path fill="#000000" d="M55.01875 65.916664L53.971874 65.916664L53.971874 59.197914Q53.58125 59.55729 52.95625 59.93229Q52.346874 60.291664 51.8625 60.46354L51.8625 59.447914Q52.7375 59.02604 53.39375 58.447914Q54.065624 57.854164 54.346874 57.291664L55.01875 57.291664L55.01875 65.916664ZM63.596874 64.90104L63.596874 65.916664L57.909374 65.916664Q57.909374 65.541664 58.034374 65.18229Q58.253124 64.604164 58.721874 64.041664Q59.20625 63.479164 60.1125 62.74479Q61.51875 61.58854 62.003124 60.916664Q62.503124 60.24479 62.503124 59.65104Q62.503124 59.02604 62.05 58.604164Q61.596874 58.166664 60.878124 58.166664Q60.1125 58.166664 59.659374 58.61979Q59.20625 59.072914 59.190624 59.885414L58.1125 59.77604Q58.221874 58.55729 58.940624 57.93229Q59.675 57.291664 60.909374 57.291664Q62.14375 57.291664 62.8625 57.979164Q63.58125 58.666664 63.58125 59.68229Q63.58125 60.197914 63.3625 60.697914Q63.159374 61.18229 62.659374 61.74479Q62.175 62.291664 61.05 63.24479Q60.096874 64.041664 59.815624 64.33854Q59.55 64.61979 59.378124 64.90104L63.596874 64.90104ZM65.05 63.666664L66.15938 63.572914Q66.28438 64.385414 66.72188 64.791664Q67.175 65.197914 67.81563 65.197914Q68.56563 65.197914 69.09688 64.61979Q69.62813 64.041664 69.62813 63.104164Q69.62813 62.197914 69.1125 61.68229Q68.6125 61.15104 67.78438 61.15104Q67.28438 61.15104 66.8625 61.385414Q66.45625 61.61979 66.22188 61.979164L65.2375 61.854164L66.06563 57.447914L70.34688 57.447914L70.34688 58.447914L66.90938 58.447914L66.45625 60.760414Q67.22188 60.21354 68.06563 60.21354Q69.19063 60.21354 69.95625 60.99479Q70.7375 61.77604 70.7375 63.010414Q70.7375 64.166664 70.06563 65.02604Q69.2375 66.05729 67.81563 66.05729Q66.64375 66.05729 65.89375 65.40104Q65.15938 64.74479 65.05 63.666664Z" fill-rule="nonzero"/><path fill="#000000" d="M70.44594 320.50525L64.36924 314.42853L66.46846 312.3293Q67.17557 311.62222 67.6396 311.33496Q68.28042 310.9372 68.954384 310.88196Q69.84931 310.80463 70.72215 311.2134Q71.594986 311.60013 72.40153 312.40665Q73.09759 313.10272 73.46219 313.79877Q73.83784 314.4838 73.93728 315.09146Q74.03671 315.69913 73.92622 316.20737Q73.82679 316.70453 73.51743 317.23486Q73.19702 317.75415 72.64459 318.30658L70.44594 320.50525ZM70.534325 318.98053L71.827 317.68787Q72.43468 317.0802 72.666695 316.6272Q72.89871 316.17422 72.887665 315.7654Q72.89871 315.20193 72.56725 314.56113Q72.24685 313.90927 71.56184 313.22424Q70.611664 312.27408 69.78302 312.08624Q68.954384 311.87634 68.33566 312.14148Q67.882675 312.3514 67.17557 313.05853L65.893936 314.34015L70.534325 318.98053ZM78.3125 309.81024L79.174286 309.12524Q79.67147 309.97598 79.549934 310.84882Q79.4284 311.72165 78.66605 312.484Q77.70483 313.44522 76.53368 313.42313Q75.37359 313.38998 74.30188 312.31827Q73.19702 311.2134 73.16388 310.03122Q73.11968 308.83798 74.025665 307.932Q74.909546 307.04813 76.05859 307.09232Q77.2187 307.12546 78.3125 308.21927Q78.37879 308.28555 78.511375 308.41812L75.22996 311.69955Q76.00335 312.38455 76.754654 312.40665Q77.4949 312.4177 78.04733 311.86526Q78.45613 311.45648 78.53347 310.9593Q78.61081 310.44 78.3125 309.81024ZM74.66648 311.0477L77.119255 308.5949Q76.51159 308.07562 76.00335 308.03143Q75.207855 307.96515 74.64438 308.52863Q74.1251 309.0479 74.11405 309.74396Q74.11405 310.42896 74.66648 311.0477ZM82.930786 304.79422L83.75943 304.16446Q84.3892 305.0373 84.32291 305.96536Q84.256615 306.89343 83.53846 307.6116Q82.63248 308.51758 81.49448 308.48444Q80.356476 308.42917 79.251625 307.32434Q78.54452 306.61722 78.24621 305.85486Q77.9479 305.07043 78.15782 304.33017Q78.37879 303.57886 78.953316 303.00433Q79.66042 302.29724 80.47801 302.20886Q81.29561 302.09836 82.10215 302.63974L81.48343 303.47943Q80.942055 303.13693 80.45592 303.18112Q79.95873 303.21426 79.583084 303.58994Q79.01961 304.15338 79.074844 304.91574Q79.11904 305.66705 79.991875 306.5399Q80.88681 307.4348 81.62706 307.49005Q82.36732 307.5453 82.90869 307.0039Q83.35063 306.56198 83.372734 306.00955Q83.405876 305.44608 82.930786 304.79422ZM87.50489 300.61786L88.36668 299.93286Q88.86386 300.7836 88.742325 301.65643Q88.62079 302.52927 87.85844 303.2916Q86.89722 304.25284 85.726074 304.23074Q84.56597 304.1976 83.49426 303.1259Q82.38941 302.02103 82.35626 300.83884Q82.31207 299.6456 83.21805 298.73962Q84.10194 297.8557 85.250984 297.89993Q86.41108 297.93307 87.50489 299.0269Q87.571175 299.09317 87.70376 299.22574L84.42234 302.50717Q85.19574 303.19217 85.947044 303.21426Q86.687294 303.2253 87.23972 302.67288Q87.64852 302.2641 87.72586 301.7669Q87.8032 301.24762 87.50489 300.61786ZM83.858864 301.8553L86.311646 299.40253Q85.70397 298.88324 85.19574 298.83905Q84.400246 298.77277 83.83677 299.33624Q83.31749 299.8555 83.30644 300.55157Q83.30644 301.23657 83.858864 301.8553ZM90.86365 300.08752L86.466324 295.69022L87.129234 295.0273L87.747955 295.64603Q87.62642 295.10464 87.7811 294.5743Q87.92473 294.03293 88.36668 293.591Q88.852806 293.10486 89.361046 292.99435Q89.880325 292.87283 90.36646 293.1159Q90.13444 291.8232 90.96308 290.99457Q91.62599 290.33167 92.3331 290.35376Q93.04021 290.35376 93.80256 291.11612L96.81881 294.13235L96.07856 294.87262L93.305374 292.09943Q92.863434 291.6575 92.58722 291.53595Q92.32205 291.40338 92.012695 291.46967Q91.70333 291.53595 91.43817 291.80112Q90.97413 292.26517 90.97413 292.88388Q90.985176 293.49155 91.67019 294.17657L94.222404 296.72876L93.4711 297.48007L90.60953 294.6185Q90.11234 294.1213 89.68145 294.06607Q89.25056 293.98874 88.84176 294.39752Q88.521355 294.71793 88.42191 295.14883Q88.32248 295.5797 88.521355 296.02167Q88.72023 296.46362 89.31685 297.06024L91.6039 299.3473L90.86365 300.08752ZM99.32683 291.62436L98.63077 292.3204L92.55407 286.2437L93.305374 285.4924L95.47089 287.65793Q95.3604 286.59726 96.08961 285.86804Q96.4984 285.45926 97.017685 285.27142Q97.536964 285.06152 98.06729 285.1278Q98.60867 285.18304 99.1611 285.4703Q99.713524 285.75757 100.188614 286.23267Q101.31557 287.35962 101.37081 288.5418Q101.42605 289.724 100.65266 290.4974Q99.86821 291.28183 98.7744 291.07193L99.32683 291.62436ZM97.08398 289.4036Q97.86842 290.18805 98.44295 290.32062Q99.371025 290.5416 99.96764 289.94498Q100.45378 289.45883 100.38749 288.68542Q100.332245 287.901 99.48151 287.05026Q98.61972 286.18848 97.86842 286.12216Q97.11712 286.05588 96.63098 286.54202Q96.144844 287.02817 96.211136 287.82364Q96.27743 288.59705 97.08398 289.4036ZM105.182556 282.9402L106.04434 282.2552Q106.54153 283.10593 106.41999 283.97876Q106.29846 284.8516 105.53611 285.61395Q104.57489 286.57516 103.40374 286.55307Q102.243645 286.51993 101.171936 285.4482Q100.06708 284.34335 100.033936 283.16116Q99.98974 281.96793 100.89572 281.06195Q101.7796 280.17807 102.92865 280.22226Q104.08875 280.2554 105.182556 281.3492Q105.24885 281.4155 105.38143 281.54807L102.10001 284.8295Q102.87341 285.5145 103.62471 285.5366Q104.36497 285.54764 104.91739 284.9952Q105.32619 284.58643 105.40353 284.08923Q105.480865 283.56995 105.182556 282.9402ZM101.53654 284.17764L103.98931 281.72485Q103.381645 281.20557 102.87341 281.16138Q102.07792 281.0951 101.51444 281.65857Q100.995155 282.17786 100.98411 282.8739Q100.98411 283.5589 101.53654 284.17764ZM108.530266 282.4209L104.13294 278.0236L104.80691 277.34964L105.46982 278.01254Q105.259895 277.29437 105.32619 276.94083Q105.39248 276.5652 105.657646 276.30002Q106.033295 275.92438 106.652016 275.76968L107.093956 276.71985Q106.652016 276.83035 106.38685 277.09552Q106.13273 277.34964 106.08854 277.7032Q106.04434 278.03464 106.23217 278.37714Q106.49733 278.90747 106.96137 279.37152L109.270515 281.68066L108.530266 282.4209Z" fill-rule="nonzero"/><path fill="#000000" d="M116.66548 308.58386L117.29525 307.75522Q118.013405 308.4292 118.49954 308.4513Q118.98568 308.4734 119.405525 308.05353Q119.703835 307.75522 119.79222 307.40167Q119.86956 307.03708 119.71488 306.72772Q119.5602 306.39624 119.040924 305.87698L114.85352 301.68958L115.64902 300.89407L119.79222 305.0373Q120.55457 305.79962 120.78659 306.4073Q121.02966 307.00394 120.85288 307.62265Q120.665054 308.23032 120.12368 308.7717Q119.328186 309.5672 118.4443 309.54507Q117.56042 309.5009 116.66548 308.58386ZM125.28335 302.33038Q125.21706 303.1038 124.97399 303.63412Q124.741974 304.1534 124.300026 304.59534Q123.57082 305.32455 122.830574 305.3577Q122.09032 305.39084 121.537895 304.8384Q121.21748 304.518 121.09595 304.1092Q120.96337 303.68936 121.05176 303.29163Q121.1291 302.8828 121.35007 302.50717Q121.4937 302.23096 121.89145 301.72272Q122.68694 300.72836 122.96316 300.1428Q122.80847 299.9881 122.77533 299.95496Q122.31129 299.4909 121.91354 299.513Q121.38321 299.5572 120.81974 300.12067Q120.30045 300.63995 120.23416 301.0819Q120.15682 301.5128 120.49933 302.09836L119.67069 302.72815Q119.30608 302.16467 119.25085 301.6454Q119.1956 301.1261 119.47182 300.54053Q119.74803 299.95496 120.3115 299.39148Q120.87498 298.828 121.361115 298.60703Q121.84725 298.38605 122.21185 298.4192Q122.576454 298.45236 122.9521 298.6954Q123.17308 298.8501 123.670265 299.3473L124.66463 300.34164Q125.70319 301.38022 126.0236 301.61224Q126.35506 301.8332 126.75281 301.9437L125.96836 302.72815Q125.625854 302.6066 125.28335 302.33038ZM123.54873 300.72836Q123.30566 301.3029 122.62065 302.23096Q122.2229 302.7613 122.12347 303.0375Q122.01298 303.30267 122.057175 303.56784Q122.11242 303.82193 122.31129 304.0208Q122.609604 304.31912 123.02945 304.29703Q123.46034 304.2639 123.891235 303.83298Q124.32213 303.4021 124.46576 302.8828Q124.62044 302.35248 124.44366 301.86636Q124.31107 301.4907 123.82494 301.00458L123.54873 300.72836ZM127.901855 300.79465L123.50453 296.3973L124.16744 295.7344L124.78616 296.35312Q124.554146 295.14883 125.471176 294.2318Q125.86892 293.83405 126.34401 293.64624Q126.83015 293.44736 127.22789 293.51364Q127.62564 293.57996 128.0013 293.823Q128.24435 293.9998 128.76364 294.51907L131.47054 297.22595L130.73029 297.96622L128.05653 295.29248Q127.59249 294.82843 127.283134 294.69583Q126.97378 294.56326 126.620224 294.65164Q126.25562 294.729 125.95731 295.0273Q125.48222 295.50238 125.43803 296.1653Q125.39384 296.80612 126.23352 297.6458L128.6421 300.05438L127.901855 300.79465ZM135.73528 292.9612L135.0834 292.30936Q135.31543 293.57996 134.43155 294.46384Q134.04485 294.85052 133.5587 295.0494Q133.07257 295.22617 132.68587 295.17093Q132.28813 295.10464 131.89038 294.83948Q131.63626 294.67374 131.15013 294.18762L128.43219 291.46967L129.18349 290.71838L131.62521 293.1601Q132.19974 293.73462 132.45386 293.90036Q132.8074 294.1213 133.20515 294.07712Q133.6029 294.01083 133.9454 293.66833Q134.27687 293.33688 134.39839 292.88388Q134.51993 292.40878 134.34315 291.98895Q134.17743 291.55804 133.61395 290.99457L131.2606 288.64124L132.00087 287.901L136.39818 292.2983L135.73528 292.9612ZM140.13258 287.48114Q140.0663 288.25455 139.82323 288.78488Q139.59122 289.30417 139.14928 289.7461Q138.42007 290.4753 137.67981 290.50845Q136.93956 290.5416 136.38713 289.98917Q136.06673 289.66876 135.94519 289.25995Q135.8126 288.84012 135.901 288.44238Q135.97833 288.03357 136.19931 287.65793Q136.34294 287.3817 136.74069 286.87347Q137.53618 285.87912 137.8124 285.29355Q137.65771 285.13885 137.62457 285.1057Q137.16054 284.64166 136.76279 284.66376Q136.23245 284.70795 135.66898 285.27142Q135.1497 285.7907 135.0834 286.23267Q135.00607 286.66354 135.34857 287.2491L134.51993 287.8789Q134.15533 287.31543 134.10008 286.79614Q134.04485 286.27686 134.32106 285.69128Q134.59727 285.1057 135.16075 284.54224Q135.72423 283.97876 136.21036 283.75778Q136.69649 283.5368 137.0611 283.56998Q137.4257 283.60312 137.80135 283.84616Q138.02232 284.00085 138.5195 284.49805L139.51387 285.4924Q140.55243 286.53098 140.87285 286.763Q141.2043 286.98395 141.60205 287.09445L140.8176 287.8789Q140.4751 287.75735 140.13258 287.48114ZM138.39796 285.87912Q138.1549 286.45364 137.4699 287.3817Q137.07214 287.91205 136.9727 288.18826Q136.86223 288.45343 136.90642 288.7186Q136.96165 288.9727 137.16054 289.17157Q137.45885 289.46988 137.8787 289.44778Q138.30959 289.41464 138.74048 288.98373Q139.17137 288.55286 139.315 288.03357Q139.46968 287.50323 139.29291 287.01712Q139.16032 286.64145 138.67418 286.15533L138.39796 285.87912ZM142.74005 285.95645L138.34273 281.5591L139.0167 280.88516L139.6796 281.54807Q139.46968 280.82993 139.53596 280.47638Q139.60226 280.1007 139.86743 279.83554Q140.24307 279.4599 140.8618 279.30524L141.30374 280.2554Q140.8618 280.36588 140.59663 280.63104Q140.34251 280.88516 140.29832 281.2387Q140.25412 281.5702 140.44196 281.9127Q140.70712 282.44302 141.17116 282.90704L143.4803 285.2162L142.74005 285.95645ZM147.2368 284.84055L146.45236 284.23288Q146.76172 284.0561 146.94954 283.8683Q147.19261 283.6252 147.24785 283.3932Q147.3252 283.16116 147.281 282.9181Q147.22575 282.7303 146.94954 282.1226Q146.90535 282.0563 146.83905 281.87955L140.75131 279.15054L141.55785 278.344L145.01605 279.96814Q145.67896 280.2775 146.36397 280.67523Q145.97726 280.02338 145.66791 279.36047L144.04378 275.8581L144.78403 275.11783L147.59036 281.2608Q148.0323 282.2552 148.16489 282.67502Q148.34166 283.24954 148.24222 283.68045Q148.16489 284.11133 147.81133 284.4649Q147.60141 284.6748 147.2368 284.84055Z" fill-rule="nonzero"/><path fill="#000000" d="M153.05183 313.38998L146.97513 307.3133L151.07414 303.21426L151.7923 303.93243L148.49983 307.22488L150.37808 309.10315L153.2286 306.25262L153.94676 306.97076L151.09624 309.8213L153.85837 312.58344L153.05183 313.38998ZM159.45999 304.1534L160.32178 303.46838Q160.81895 304.31912 160.69742 305.19196Q160.57588 306.0648 159.81354 306.82715Q158.85231 307.78836 157.68117 307.76627Q156.52107 307.73312 155.44937 306.6614Q154.34451 305.55658 154.31137 304.37436Q154.26717 303.18112 155.17316 302.27515Q156.05704 301.39127 157.20609 301.43546Q158.36618 301.4686 159.45999 302.5624Q159.52628 302.6287 159.65886 302.7613L156.37744 306.0427Q157.15083 306.72772 157.90215 306.74982Q158.6424 306.76086 159.19482 306.20844Q159.60362 305.79962 159.68095 305.30246Q159.7583 304.78317 159.45999 304.1534ZM155.81396 305.39084L158.26674 302.93805Q157.65907 302.4188 157.15083 302.37457Q156.35535 302.3083 155.79187 302.87177Q155.27258 303.39105 155.26154 304.0871Q155.26154 304.77213 155.81396 305.39084ZM163.50375 302.93805L162.8077 303.63412L156.731 297.55743L157.4823 296.80612L159.64781 298.97162Q159.53732 297.91098 160.26653 297.18176Q160.67532 296.77298 161.19461 296.58514Q161.71388 296.3752 162.24422 296.44153Q162.7856 296.49677 163.33803 296.78403Q163.89046 297.0713 164.36554 297.54636Q165.4925 298.6733 165.54773 299.85553Q165.60298 301.03772 164.82957 301.8111Q164.04514 302.59555 162.95132 302.38562L163.50375 302.93805ZM161.2609 300.71732Q162.04535 301.50174 162.61987 301.63434Q163.54794 301.85532 164.14456 301.25867Q164.6307 300.77255 164.5644 299.99915Q164.50917 299.2147 163.65843 298.36395Q162.79665 297.50217 162.04535 297.43588Q161.29404 297.3696 160.8079 297.85574Q160.32178 298.34186 160.38806 299.13736Q160.45436 299.91077 161.2609 300.71732ZM167.75745 298.68436L163.36012 294.28705L164.03409 293.6131L164.69699 294.276Q164.48708 293.55786 164.55336 293.20428Q164.61966 292.82864 164.88483 292.56348Q165.26047 292.18784 165.8792 292.03314L166.32114 292.98334Q165.8792 293.0938 165.61403 293.35898Q165.35991 293.6131 165.31572 293.96664Q165.27151 294.2981 165.45935 294.6406Q165.7245 295.17093 166.18855 295.63498L168.4977 297.94412L167.75745 298.68436ZM173.48059 292.9612L172.82872 292.30936Q173.06075 293.57996 172.17686 294.46384Q171.79016 294.85052 171.30403 295.0494Q170.81789 295.22617 170.43118 295.17093Q170.03345 295.10464 169.6357 294.83948Q169.38158 294.67374 168.89545 294.18762L166.1775 291.46967L166.9288 290.71838L169.37053 293.1601Q169.94505 293.73462 170.19917 293.90036Q170.55272 294.12134 170.95047 294.07712Q171.34822 294.01083 171.69072 293.66833Q172.02219 293.33688 172.1437 292.88388Q172.26524 292.4088 172.08847 291.98895Q171.92274 291.55807 171.35927 290.9946L169.00592 288.64124L169.74619 287.901L174.1435 292.2983L173.48059 292.9612ZM177.87791 287.48114Q177.81161 288.25455 177.56854 288.78488Q177.33653 289.30417 176.89459 289.7461Q176.16539 290.4753 175.42513 290.50845Q174.68488 290.5416 174.13245 289.98917Q173.81204 289.66876 173.6905 289.25995Q173.55792 288.84012 173.64632 288.44238Q173.72365 288.03357 173.94463 287.65793Q174.08826 287.3817 174.48601 286.87347Q175.2815 285.87912 175.55771 285.29355Q175.40303 285.13885 175.36989 285.1057Q174.90585 284.64166 174.5081 284.66376Q173.97777 284.70798 173.41429 285.27145Q172.89502 285.7907 172.82872 286.23267Q172.75139 286.66354 173.09389 287.2491L172.26524 287.8789Q171.90065 287.31543 171.8454 286.79614Q171.79016 286.27686 172.06638 285.69128Q172.34259 285.1057 172.90607 284.54224Q173.46954 283.97876 173.95567 283.75778Q174.4418 283.5368 174.80641 283.56998Q175.17102 283.60312 175.54666 283.8462Q175.76764 284.00085 176.26482 284.49805L177.25919 285.4924Q178.29774 286.53098 178.61816 286.763Q178.94962 286.98398 179.34737 287.09445L178.56291 287.8789Q178.22041 287.75735 177.87791 287.48114ZM176.14328 285.87912Q175.90022 286.45364 175.21521 287.3817Q174.81746 287.91205 174.71802 288.18826Q174.60754 288.45343 174.65173 288.7186Q174.70697 288.9727 174.90585 289.17157Q175.20416 289.46988 175.62401 289.44778Q176.0549 289.41464 176.4858 288.98376Q176.91669 288.55286 177.06032 288.03357Q177.215 287.50323 177.03822 287.01712Q176.90564 286.64145 176.4195 286.15533L176.14328 285.87912ZM180.48537 285.95645L176.08804 281.55914L176.76201 280.88516L177.42491 281.54807Q177.215 280.82993 177.28128 280.47638Q177.34758 280.1007 177.61275 279.83554Q177.98839 279.4599 178.60712 279.30524L179.04906 280.2554Q178.60712 280.36588 178.34195 280.63104Q178.08783 280.88516 178.04364 281.2387Q177.99944 281.5702 178.18727 281.9127Q178.45244 282.44302 178.91647 282.90704L181.22562 285.2162L180.48537 285.95645ZM184.98212 284.84055L184.19768 284.23288Q184.50703 284.0561 184.69485 283.8683Q184.93793 283.6252 184.99316 283.3932Q185.07051 283.16116 185.02632 282.9181Q184.97107 282.7303 184.69485 282.12262Q184.65067 282.0563 184.58437 281.87955L178.49663 279.15054L179.30318 278.344L182.76137 279.96814Q183.42427 280.2775 184.10928 280.67523Q183.72258 280.02338 183.41322 279.36047L181.7891 275.8581L182.52934 275.11783L185.33568 281.2608Q185.77762 282.2552 185.9102 282.67502Q186.08698 283.24954 185.98753 283.68045Q185.9102 284.11133 185.55664 284.4649Q185.34673 284.6748 184.98212 284.84055Z" fill-rule="nonzero"/><path fill="#000000" d="M201.33746 302.84967L195.26076 296.77298L196.4761 295.55765L202.2103 298.41922Q203.01683 298.828 203.40353 299.03793Q203.17151 298.60703 202.75166 297.74524L199.97849 292.05524L201.06125 290.9725L207.13794 297.0492L206.36455 297.8226L201.28221 292.74026L204.59677 299.59036L203.86757 300.31955L196.94014 296.90555L202.11086 302.07626L201.33746 302.84967ZM209.96637 293.138Q209.90009 293.9114 209.65701 294.44174Q209.42499 294.96103 208.98305 295.40295Q208.25385 296.13217 207.5136 296.1653Q206.77335 296.19846 206.22092 295.64603Q205.90051 295.32562 205.77898 294.9168Q205.6464 294.49698 205.73477 294.0992Q205.81212 293.69043 206.03308 293.3148Q206.17671 293.03857 206.57446 292.53033Q207.36996 291.53598 207.64618 290.95038Q207.4915 290.79572 207.45834 290.76257Q206.99431 290.29852 206.59656 290.32062Q206.06624 290.3648 205.50276 290.92828Q204.98347 291.44757 204.91719 291.88953Q204.83984 292.3204 205.18236 292.90598L204.35371 293.53577Q203.9891 292.9723 203.93387 292.453Q203.87862 291.93372 204.15483 291.34814Q204.43105 290.76257 204.99452 290.1991Q205.558 289.63562 206.04414 289.41464Q206.53027 289.19366 206.89487 289.2268Q207.25948 289.25998 207.63513 289.50302Q207.8561 289.6577 208.35329 290.1549L209.34766 291.14926Q210.38622 292.18784 210.70662 292.41986Q211.03809 292.6408 211.43582 292.7513L210.65138 293.53577Q210.30887 293.4142 209.96637 293.138ZM208.23175 291.53598Q207.98868 292.1105 207.30367 293.03857Q206.90593 293.5689 206.80649 293.84512Q206.696 294.1103 206.74019 294.37543Q206.79544 294.62955 206.99431 294.82843Q207.29262 295.12674 207.71246 295.10464Q208.14336 295.0715 208.57425 294.6406Q209.00514 294.20972 209.14877 293.69043Q209.30345 293.1601 209.12668 292.67398Q208.9941 292.2983 208.50797 291.81216L208.23175 291.53598ZM212.57382 291.6133L208.1765 287.21597L208.85046 286.54202L209.51338 287.20493Q209.30345 286.4868 209.36975 286.13324Q209.43604 285.75757 209.7012 285.4924Q210.07686 285.11676 210.69557 284.9621L211.13751 285.91226Q210.69557 286.02274 210.4304 286.2879Q210.17628 286.54202 210.1321 286.89557Q210.0879 287.22702 210.27573 287.56955Q210.5409 288.09985 211.00493 288.5639L213.31407 290.87305L212.57382 291.6133ZM216.67284 284.28812L217.50148 283.65836Q218.13124 284.5312 218.06496 285.45926Q217.99866 286.38733 217.2805 287.1055Q216.37453 288.01147 215.23653 287.97833Q214.09853 287.9231 212.99367 286.81824Q212.28656 286.11115 211.98825 285.3488Q211.68994 284.56433 211.89987 283.8241Q212.12083 283.07278 212.69536 282.49826Q213.40247 281.79114 214.22006 281.70276Q215.03766 281.5923 215.8442 282.13367L215.22548 282.97336Q214.6841 282.63083 214.19797 282.67505Q213.70078 282.7082 213.32513 283.08383Q212.76166 283.6473 212.8169 284.40967Q212.86108 285.16095 213.73392 286.03378Q214.62886 286.9287 215.36911 286.98398Q216.10936 287.0392 216.65074 286.49783Q217.09268 286.05588 217.11478 285.50345Q217.14792 284.93997 216.67284 284.28812ZM219.65594 284.5312L213.57924 278.4545L214.31949 277.71423L216.49606 279.8908Q216.41872 278.7749 217.21422 277.9794Q217.7114 277.4822 218.26382 277.32755Q218.81625 277.15076 219.31343 277.3386Q219.79958 277.51535 220.45143 278.16724L223.23567 280.95145L222.49542 281.6917L219.71118 278.90747Q219.1477 278.344 218.65053 278.33295Q218.15334 278.3219 217.7114 278.76385Q217.37994 279.0953 217.2584 279.5704Q217.13687 280.02338 217.3026 280.45428Q217.46834 280.86307 217.98761 281.38235L220.3962 283.79092L219.65594 284.5312Z" fill-rule="nonzero"/><path fill="#000000" d="M244.80592 297.12653L241.06047 288.71857L241.92226 287.85678L250.48488 291.44757L249.5789 292.35355L247.01564 291.2266L244.48552 293.7567L245.65666 296.2758L244.80592 297.12653ZM244.06567 292.87283L246.12071 290.8178L243.81155 289.7682Q242.7509 289.30414 242.12114 288.93954Q242.58517 289.64667 242.94977 290.4311L244.06567 292.87283ZM252.02063 293.29266L245.93288 287.20493L246.60684 286.53098L247.17032 287.09445Q247.08192 286.51993 247.21451 286.05588Q247.35814 285.58078 247.78903 285.1499Q248.35251 284.58643 249.07066 284.44278Q249.78882 284.29916 250.52907 284.61957Q251.28038 284.92892 251.91014 285.5587Q252.5841 286.23267 252.88242 287.0171Q253.19177 287.7905 253.015 288.5418Q252.83823 289.2931 252.32999 289.80133Q251.95433 290.17697 251.50134 290.32062Q251.03731 290.4532 250.61746 290.409L252.76088 292.55243L252.02063 293.29266ZM248.8276 288.7517Q249.67834 289.60245 250.42964 289.66876Q251.16989 289.724 251.65602 289.23785Q252.15321 288.74066 252.08691 287.9673Q252.02063 287.19388 251.13675 286.31Q250.29706 285.4703 249.54576 285.40402Q248.7834 285.32666 248.29727 285.8128Q247.82219 286.2879 247.89952 287.09445Q247.97687 287.901 248.8276 288.7517ZM255.2689 286.66354L250.87158 282.26624L251.54555 281.59225L252.20845 282.2552Q251.99854 281.53702 252.06482 281.18347Q252.13112 280.80783 252.39629 280.54266Q252.77193 280.167 253.39066 280.01233L253.8326 280.9625Q253.39066 281.073 253.12549 281.33817Q252.87137 281.59225 252.82718 281.94583Q252.78297 282.27728 252.97081 282.61978Q253.23596 283.15012 253.70001 283.61417L256.00916 285.9233L255.2689 286.66354ZM252.89346 278.60916L252.03168 277.74738L252.78297 276.99606L253.64476 277.85785L252.89346 278.60916ZM258.10837 283.82407L253.71106 279.42676L254.46236 278.67545L258.85968 283.07278L258.10837 283.82407ZM260.2076 281.72485L254.1309 275.64816L254.8822 274.89685L260.9589 280.97354L260.2076 281.72485Z" fill-rule="nonzero"/><path fill="#000000" d="M285.3134 294.3644L279.23666 288.2877L280.45203 287.07236L286.18622 289.93393Q286.99274 290.3427 287.37946 290.55264Q287.14743 290.12177 286.7276 289.25998L283.9544 283.56998L285.03717 282.4872L291.11386 288.5639L290.34045 289.3373L285.25812 284.25497L288.5727 291.10507L287.84348 291.8343L280.91605 288.4203L286.08676 293.591L285.3134 294.3644ZM293.9423 284.65274Q293.876 285.42612 293.63293 285.95645Q293.4009 286.47574 292.95895 286.91766Q292.22977 287.64688 291.4895 287.68002Q290.74927 287.71317 290.19684 287.16074Q289.87643 286.84033 289.75488 286.43155Q289.6223 286.0117 289.7107 285.61395Q289.78802 285.20514 290.009 284.8295Q290.15262 284.55328 290.55038 284.04504Q291.3459 283.0507 291.6221 282.46512Q291.4674 282.31042 291.43427 282.27728Q290.9702 281.81326 290.57248 281.83536Q290.04214 281.87955 289.47867 282.44302Q288.95938 282.9623 288.8931 283.40424Q288.81577 283.83514 289.15826 284.42072L288.32962 285.05048Q287.96503 284.487 287.9098 283.9677Q287.85452 283.44843 288.13074 282.86285Q288.40695 282.27728 288.97043 281.7138Q289.5339 281.15033 290.02005 280.92938Q290.5062 280.7084 290.8708 280.74155Q291.23538 280.7747 291.61105 281.01776Q291.832 281.17242 292.3292 281.66962L293.32358 282.664Q294.36212 283.70255 294.68253 283.93457Q295.014 284.15555 295.41174 284.26602L294.6273 285.05048Q294.2848 284.92896 293.9423 284.65274ZM292.20767 283.0507Q291.9646 283.6252 291.27957 284.55328Q290.88184 285.08362 290.7824 285.35983Q290.6719 285.625 290.7161 285.89017Q290.77136 286.1443 290.9702 286.34314Q291.26852 286.64148 291.6884 286.61935Q292.11926 286.5862 292.55017 286.15533Q292.98105 285.72443 293.1247 285.20514Q293.27936 284.67484 293.1026 284.1887Q292.97 283.81305 292.4839 283.3269L292.20767 283.0507ZM298.21808 284.84055L297.43362 284.23288Q297.74298 284.0561 297.93082 283.8683Q298.1739 283.6252 298.22913 283.3932Q298.30646 283.16116 298.26227 282.9181Q298.20703 282.7303 297.93082 282.12262Q297.88663 282.0563 297.8203 281.87955L291.73257 279.15054L292.53912 278.344L295.9973 279.96814Q296.66022 280.2775 297.34525 280.67526Q296.95853 280.02338 296.64917 279.36047L295.02505 275.8581L295.7653 275.11783L298.57162 281.26083Q299.01358 282.2552 299.14615 282.67505Q299.32294 283.24957 299.22348 283.68045Q299.14615 284.11136 298.7926 284.4649Q298.58267 284.67484 298.21808 284.84055Z" fill-rule="nonzero"/><path fill="#000000" d="M316.70578 297.27014L317.33554 296.44153Q318.0537 297.11548 318.53986 297.13757Q319.02597 297.15967 319.44583 296.73984Q319.74414 296.44153 319.83252 296.08795Q319.90985 295.72336 319.7552 295.414Q319.6005 295.08255 319.08124 294.56326L314.89383 290.37585L315.68933 289.58038L319.83252 293.72357Q320.59488 294.48593 320.8269 295.0936Q321.06995 295.69022 320.8932 296.30893Q320.70535 296.9166 320.16397 297.45798Q319.3685 298.25348 318.4846 298.23138Q317.6007 298.1872 316.70578 297.27014ZM325.87607 291.547L325.2242 290.89514Q325.45624 292.16574 324.57236 293.04962Q324.18564 293.4363 323.69952 293.6352Q323.21338 293.81195 322.8267 293.7567Q322.42892 293.69043 322.0312 293.42526Q321.77707 293.25952 321.29092 292.7734L318.573 290.05545L319.32428 289.30417L321.76602 291.74588Q322.34055 292.3204 322.59467 292.48615Q322.9482 292.7071 323.34595 292.6629Q323.7437 292.59662 324.0862 292.25412Q324.41766 291.92267 324.5392 291.46967Q324.66074 290.99457 324.48395 290.57474Q324.31824 290.14383 323.75476 289.58038L321.40143 287.22702L322.14166 286.4868L326.539 290.8841L325.87607 291.547ZM327.94217 289.48093L323.54483 285.08362L324.20773 284.4207L324.82648 285.03943Q324.59445 283.8351 325.51147 282.9181Q325.9092 282.52036 326.3843 282.33252Q326.87045 282.13364 327.2682 282.19995Q327.66595 282.26624 328.0416 282.5093Q328.28467 282.68607 328.80396 283.20535L331.51083 285.91226L330.77057 286.6525L328.09683 283.97876Q327.63278 283.5147 327.32343 283.38214Q327.01407 283.24954 326.66052 283.33795Q326.29593 283.41528 325.99762 283.7136Q325.52252 284.1887 325.47833 284.8516Q325.43414 285.4924 326.27383 286.3321L328.6824 288.7407L327.94217 289.48093ZM334.48288 280.11176L335.34467 279.42676Q335.84186 280.2775 335.72034 281.15033Q335.5988 282.02316 334.83646 282.78552Q333.8752 283.74673 332.70407 283.72464Q331.54398 283.6915 330.47226 282.61978Q329.36743 281.51492 329.33426 280.33273Q329.29007 279.1395 330.19604 278.23352Q331.07996 277.34964 332.229 277.39383Q333.3891 277.42697 334.48288 278.52078Q334.5492 278.58707 334.68176 278.71964L331.40036 282.00107Q332.17374 282.68607 332.92505 282.70816Q333.6653 282.7192 334.2177 282.1668Q334.62653 281.758 334.70386 281.2608Q334.7812 280.74155 334.48288 280.11176ZM330.83688 281.3492L333.28964 278.89642Q332.68198 278.37714 332.17374 278.33295Q331.37827 278.26666 330.8148 278.83014Q330.2955 279.34943 330.28445 280.04547Q330.28445 280.7305 330.83688 281.3492Z" fill-rule="nonzero"/><path fill="#000000" d="M358.69376 293.0275L359.32352 292.19885Q360.0417 292.87283 360.5278 292.89493Q361.01395 292.91702 361.4338 292.49716Q361.73212 292.19885 361.8205 291.8453Q361.89783 291.4807 361.74316 291.17136Q361.58847 290.8399 361.06918 290.32062L356.8818 286.1332L357.67728 285.3377L361.8205 289.48093Q362.58286 290.2433 362.81485 290.85095Q363.05792 291.44757 362.88116 292.06628Q362.69333 292.67395 362.15195 293.21533Q361.35645 294.01083 360.47256 293.98874Q359.58868 293.94455 358.69376 293.0275ZM367.86404 287.30435L367.2122 286.6525Q367.4442 287.92307 366.5603 288.80698Q366.1736 289.19366 365.68747 289.39255Q365.20135 289.5693 364.81464 289.51407Q364.4169 289.44778 364.01917 289.18262Q363.76505 289.01688 363.2789 288.53076L360.56094 285.8128L361.31226 285.0615L363.754 287.50323Q364.32852 288.07776 364.58264 288.2435Q364.9362 288.46445 365.33392 288.42026Q365.7317 288.35397 366.0742 288.01147Q366.40564 287.68002 366.52716 287.22702Q366.6487 286.75192 366.47192 286.3321Q366.3062 285.90118 365.74274 285.3377L363.38937 282.98438L364.12964 282.24414L368.52695 286.64145L367.86404 287.30435ZM369.90802 285.26038L363.83133 279.1837L364.58264 278.43237L370.65933 284.50906L369.90802 285.26038ZM373.7087 284.84055L372.9243 284.23288Q373.23364 284.0561 373.42145 283.86826Q373.66452 283.62518 373.7198 283.3932Q373.79712 283.16116 373.75293 282.9181Q373.69766 282.73026 373.42145 282.1226Q373.37726 282.0563 373.31097 281.87952L367.22324 279.15054L368.0298 278.344L371.48798 279.96814Q372.15088 280.2775 372.83588 280.67523Q372.4492 280.02338 372.13983 279.36044L370.5157 275.85806L371.25595 275.11783L374.0623 281.2608Q374.5042 282.2552 374.6368 282.67502Q374.81357 283.24954 374.71414 283.68045Q374.6368 284.11133 374.28323 284.46487Q374.07333 284.6748 373.7087 284.84055Z" fill-rule="nonzero"/><path fill="#000000" d="M385.8877 307.02603L382.14224 298.61807L383.00403 297.7563L391.56665 301.34708L390.66068 302.25305L388.0974 301.1261L385.5673 303.65622L386.73843 306.1753L385.8877 307.02603ZM385.14746 302.77234L387.20248 300.71732L384.89334 299.6677Q383.83267 299.20364 383.2029 298.83905Q383.66693 299.54617 384.03156 300.3306L385.14746 302.77234ZM394.29565 298.61807L393.64377 297.96622Q393.8758 299.2368 392.9919 300.1207Q392.60522 300.5074 392.11908 300.70627Q391.63293 300.88303 391.24625 300.8278Q390.8485 300.7615 390.45074 300.49634Q390.19662 300.3306 389.7105 299.84448L386.99255 297.12653L387.74387 296.3752L390.18558 298.81696Q390.7601 299.39148 391.01422 299.55722Q391.36777 299.77817 391.76553 299.73398Q392.16327 299.6677 392.50577 299.3252Q392.83722 298.99374 392.95877 298.54074Q393.0803 298.06564 392.90353 297.6458Q392.7378 297.2149 392.17432 296.65143L389.82098 294.2981L390.56125 293.55786L394.95856 297.95517L394.29565 298.61807ZM396.5827 297.06024L397.4224 296.44153Q397.79803 296.7288 398.16263 296.67352Q398.64877 296.60724 399.12384 296.13217Q399.64313 295.61288 399.70944 295.12674Q399.78677 294.62955 399.5216 294.16553Q399.35587 293.86722 398.61563 293.14905Q398.704 294.20972 397.9748 294.9389Q397.06882 295.8449 395.91977 295.69022Q394.75967 295.52448 393.8537 294.6185Q393.22394 293.98874 392.91458 293.23743Q392.60522 292.46405 392.74884 291.74588Q392.8925 291.02774 393.47806 290.44217Q394.26248 289.6577 395.40048 289.77924L394.87018 289.2489L395.55518 288.5639L399.35587 292.3646Q400.3834 293.39212 400.60437 294.03293Q400.82532 294.67374 400.61542 295.3698Q400.41653 296.0769 399.75363 296.73984Q398.96918 297.52426 398.1295 297.65686Q397.2898 297.78943 396.5827 297.06024ZM394.56082 293.8009Q395.4226 294.6627 396.16284 294.71796Q396.9031 294.7732 397.4224 294.2539Q397.94165 293.73462 397.8864 292.9944Q397.84222 292.24307 397.00253 291.40338Q396.19598 290.59683 395.4226 290.55264Q394.66025 290.4974 394.152 291.00565Q393.65482 291.5028 393.71008 292.26517Q393.76532 293.00543 394.56082 293.8009ZM404.19513 288.7186L403.54327 288.0667Q403.7753 289.3373 402.89142 290.2212Q402.5047 290.60788 402.0186 290.80676Q401.53244 290.98355 401.14575 290.92828Q400.748 290.862 400.35025 290.59683Q400.09613 290.43112 399.61 289.94498L396.89206 287.22702L397.64334 286.47574L400.08508 288.91745Q400.6596 289.49197 400.91373 289.6577Q401.26727 289.8787 401.665 289.8345Q402.06277 289.7682 402.40527 289.4257Q402.73672 289.09424 402.85828 288.64124Q402.9798 288.16617 402.803 287.7463Q402.6373 287.31543 402.07382 286.75195L399.7205 284.39862L400.46072 283.65836L404.85806 288.05566L404.19513 288.7186ZM404.64813 285.63605L405.26685 284.79636Q405.7751 285.172 406.28333 285.1278Q406.80258 285.07257 407.32187 284.55328Q407.8301 284.04504 407.8743 283.60312Q407.9185 283.13907 407.63123 282.8518Q407.3771 282.5977 407.0125 282.67502Q406.7584 282.7303 405.99606 283.18326Q404.96854 283.79092 404.5045 283.9677Q404.04047 284.1224 403.60956 284.02295Q403.17868 283.92352 402.84723 283.59207Q402.55997 283.3048 402.43842 282.9181Q402.3169 282.5314 402.38318 282.13367Q402.43842 281.83536 402.64835 281.44864Q402.85828 281.06195 403.21182 280.7084Q403.72006 280.20016 404.2614 279.96814Q404.8028 279.71402 405.24475 279.7803Q405.68668 279.84662 406.17282 280.20016L405.54306 281.0288Q405.16742 280.74155 404.7365 280.79678Q404.30563 280.82993 403.86368 281.27188Q403.35544 281.7801 403.31125 282.17786Q403.256 282.56454 403.48804 282.79657Q403.63165 282.9402 403.83054 282.96228Q404.0515 282.9844 404.31668 282.8739Q404.47134 282.80762 405.16742 282.39883Q406.18387 281.82428 406.62582 281.64752Q407.06775 281.47073 407.49866 281.5481Q407.92953 281.62543 408.31625 282.01212Q408.6919 282.38776 408.80237 282.9402Q408.91287 283.47052 408.6919 284.06714Q408.45987 284.6527 407.94058 285.172Q407.0788 286.03378 406.27228 286.13324Q405.46573 286.21057 404.64813 285.63605ZM412.17218 279.4157L412.93454 279.9571Q412.68042 280.34378 412.43735 280.58685Q412.02856 280.99567 411.68604 281.0951Q411.3325 281.18347 411.02313 281.073Q410.72482 280.95145 410.05087 280.2775L407.52075 277.74738L406.97937 278.28876L406.40485 277.71423L406.94623 277.17285L405.85242 276.07904L406.15073 274.89685L407.68646 276.43262L408.43777 275.6813L409.0123 276.25583L408.261 277.00714L410.8353 279.58145Q411.15573 279.90186 411.27725 279.9571Q411.40985 280.00128 411.55347 279.96814Q411.6971 279.935 411.86282 279.76926Q411.99542 279.6367 412.17218 279.4157Z" fill-rule="nonzero"/><path fill="#000000" d="M405.81174 320.93613L406.49673 320.11853Q407.01602 320.52734 407.50217 320.61572Q407.98828 320.7041 408.5849 320.48315Q409.18152 320.24008 409.7008 319.7208Q410.1538 319.2678 410.3748 318.78168Q410.5847 318.2845 410.5184 317.88672Q410.45212 317.4669 410.1759 317.19067Q409.88864 316.9034 409.513 316.85922Q409.12628 316.804 408.607 317.03598Q408.25345 317.19067 407.2149 317.83148Q406.18738 318.46124 405.67914 318.61594Q405.0052 318.82587 404.4638 318.7043Q403.91138 318.57175 403.49155 318.1519Q403.03854 317.6989 402.8949 317.04703Q402.75128 316.37308 403.0496 315.67703Q403.3479 314.95886 403.95557 314.3512Q404.62955 313.67725 405.36978 313.37894Q406.099 313.06958 406.8061 313.22424Q407.50217 313.3679 408.0546 313.8761L407.33643 314.70474Q406.69562 314.19653 406.04373 314.27386Q405.39188 314.3291 404.69583 315.02515Q403.9666 315.75436 403.90033 316.35098Q403.83405 316.9476 404.2097 317.32324Q404.54114 317.65472 404.9831 317.63263Q405.42502 317.6105 406.61826 316.85922Q407.82257 316.09686 408.3529 315.89798Q409.13733 315.6218 409.76712 315.74332Q410.38583 315.8538 410.883 316.35098Q411.36914 316.83713 411.52383 317.54422Q411.66745 318.2403 411.39124 319.00262Q411.10397 319.75394 410.45212 320.4058Q409.62347 321.23444 408.82797 321.5659Q408.03247 321.87524 407.22595 321.70953Q406.43045 321.53275 405.81174 320.93613ZM415.19196 312.63867L416.05374 311.95367Q416.5509 312.8044 416.42938 313.67725Q416.30783 314.55008 415.5455 315.3124Q414.58426 316.27365 413.41312 316.25156Q412.25302 316.2184 411.1813 315.1467Q410.07648 314.04184 410.0433 312.85965Q409.9991 311.6664 410.9051 310.7604Q411.789 309.87653 412.93805 309.92075Q414.09814 309.9539 415.19196 311.04767Q415.25824 311.11398 415.3908 311.24655L412.1094 314.52798Q412.88278 315.21298 413.6341 315.23508Q414.37436 315.24612 414.9268 314.6937Q415.33557 314.2849 415.4129 313.78772Q415.49026 313.26843 415.19196 312.63867ZM411.54593 313.8761L413.9987 311.42334Q413.39102 310.90405 412.88278 310.85986Q412.0873 310.79358 411.52383 311.35706Q411.00455 311.8763 410.9935 312.5724Q410.9935 313.2574 411.54593 313.8761ZM420.24112 313.79877L414.15338 307.71103L414.82733 307.03705L415.3908 307.60052Q415.30243 307.026 415.435 306.56198Q415.57864 306.08688 416.00952 305.656Q416.573 305.09253 417.29117 304.94888Q418.0093 304.80527 418.74957 305.12567Q419.5009 305.43503 420.13065 306.0648Q420.8046 306.73874 421.1029 307.5232Q421.41226 308.2966 421.2355 309.04788Q421.05872 309.7992 420.55048 310.30743Q420.17484 310.68307 419.72183 310.82672Q419.2578 310.9593 418.83795 310.9151L420.98138 313.05853L420.24112 313.79877ZM417.0481 309.2578Q417.89883 310.10855 418.65015 310.17484Q419.39038 310.2301 419.87653 309.74396Q420.37372 309.24677 420.3074 308.47336Q420.24112 307.69998 419.35724 306.8161Q418.51755 305.9764 417.76627 305.91013Q417.0039 305.83276 416.51776 306.3189Q416.04266 306.794 416.12003 307.60052Q416.19736 308.40707 417.0481 309.2578ZM424.46167 304.87155L425.22403 305.41293Q424.9699 305.79962 424.72684 306.0427Q424.31802 306.45148 423.97552 306.55093Q423.62198 306.6393 423.31262 306.52884Q423.0143 306.4073 422.34036 305.73334L419.81024 303.20322L419.26886 303.7446L418.69434 303.17007L419.23572 302.6287L418.1419 301.53488L418.44022 300.3527L419.97595 301.88843L420.72726 301.13715L421.3018 301.71167L420.55048 302.46295L423.1248 305.03726Q423.4452 305.3577 423.56674 305.41293Q423.6993 305.45712 423.84296 305.42398Q423.98657 305.39084 424.1523 305.2251Q424.28488 305.09253 424.46167 304.87155ZM427.21277 300.61786L428.07455 299.93286Q428.57172 300.7836 428.4502 301.65643Q428.32864 302.52927 427.5663 303.2916Q426.60507 304.25284 425.43393 304.23074Q424.27383 304.1976 423.20215 303.1259Q422.0973 302.02103 422.06415 300.83884Q422.01993 299.6456 422.92593 298.7396Q423.8098 297.8557 424.95886 297.8999Q426.11896 297.93307 427.21277 299.02686Q427.27905 299.09317 427.41162 299.22574L424.13022 302.50717Q424.9036 303.19217 425.6549 303.21426Q426.39517 303.2253 426.9476 302.67288Q427.35638 302.2641 427.43372 301.7669Q427.51108 301.24762 427.21277 300.61786ZM423.56674 301.8553L426.0195 299.40253Q425.41183 298.88324 424.9036 298.83905Q424.10812 298.77277 423.54465 299.33624Q423.02536 299.8555 423.0143 300.55157Q423.0143 301.23657 423.56674 301.8553ZM430.5715 300.08752L426.1742 295.69022L426.8371 295.02728L427.4558 295.64603Q427.3343 295.10464 427.48898 294.5743Q427.6326 294.03293 428.07455 293.59097Q428.56067 293.10486 429.0689 292.99435Q429.5882 292.87283 430.07434 293.1159Q429.84232 291.8232 430.67096 290.99457Q431.33386 290.33167 432.04095 290.35376Q432.74808 290.35376 433.51044 291.11612L436.52667 294.13235L435.78644 294.87262L433.01324 292.09943Q432.5713 291.6575 432.29507 291.53595Q432.0299 291.40338 431.72055 291.46967Q431.4112 291.53595 431.14603 291.80112Q430.682 292.26517 430.682 292.88388Q430.69305 293.49155 431.37805 294.17654L433.93027 296.72876L433.17896 297.48007L430.31738 294.6185Q429.82022 294.1213 429.3893 294.06607Q428.95844 293.98874 428.54962 294.39752Q428.22922 294.71793 428.1298 295.14883Q428.03033 295.5797 428.22922 296.02167Q428.4281 296.4636 429.02472 297.06024L431.31177 299.3473L430.5715 300.08752ZM439.0347 291.62436L438.33865 292.3204L432.26193 286.2437L433.01324 285.4924L435.17874 287.65793Q435.06827 286.59726 435.7975 285.86804Q436.20627 285.45926 436.72556 285.27142Q437.24484 285.06152 437.77518 285.1278Q438.31653 285.18304 438.86896 285.4703Q439.4214 285.75757 439.89648 286.23267Q441.02344 287.35962 441.07867 288.5418Q441.1339 289.724 440.36053 290.4974Q439.57608 291.28183 438.48227 291.07193L439.0347 291.62436ZM436.79184 289.4036Q437.5763 290.18802 438.15082 290.32062Q439.0789 290.5416 439.6755 289.94498Q440.16165 289.45883 440.09537 288.68542Q440.0401 287.90097 439.18936 287.05023Q438.32758 286.18845 437.5763 286.12216Q436.82498 286.05588 436.33887 286.54202Q435.85272 287.02814 435.919 287.82364Q435.9853 288.59705 436.79184 289.4036ZM444.8904 282.9402L445.7522 282.2552Q446.2494 283.10593 446.12787 283.97876Q446.00632 284.8516 445.244 285.61392Q444.28275 286.57516 443.1116 286.55307Q441.9515 286.51993 440.8798 285.4482Q439.77496 284.34335 439.7418 283.16116Q439.6976 281.96793 440.60358 281.06195Q441.4875 280.17804 442.63654 280.22226Q443.79663 280.2554 444.8904 281.3492Q444.95673 281.4155 445.0893 281.54807L441.8079 284.8295Q442.58127 285.5145 443.33258 285.5366Q444.07285 285.54764 444.62527 284.9952Q445.03406 284.58643 445.1114 284.08923Q445.18872 283.56995 444.8904 282.9402ZM441.24442 284.1776L443.69717 281.72485Q443.0895 281.20557 442.58127 281.16138Q441.7858 281.0951 441.22232 281.65857Q440.70303 282.17783 440.692 282.8739Q440.692 283.5589 441.24442 284.1776ZM448.23813 282.4209L443.84082 278.0236L444.51477 277.34964L445.17767 278.01254Q444.96777 277.29437 445.03406 276.94083Q445.10034 276.5652 445.3655 276.30002Q445.74115 275.92438 446.3599 275.76968L446.80182 276.71985Q446.3599 276.83035 446.09473 277.09552Q445.8406 277.34964 445.79642 277.7032Q445.7522 278.03464 445.94003 278.37714Q446.2052 278.90747 446.66925 279.37152L448.9784 281.68066L448.23813 282.4209Z" fill-rule="nonzero"/><path fill="#000000" d="M455.30164 307.1807Q453.788 305.66705 453.74377 304.00977Q453.6996 302.33038 454.98123 301.04877Q455.83197 300.19803 456.91473 299.93286Q457.98642 299.65665 459.05814 300.02124Q460.12985 300.38586 461.04688 301.3029Q461.9639 302.2199 462.31747 303.32477Q462.67102 304.42963 462.36166 305.49026Q462.06335 306.5399 461.26785 307.3354Q460.40607 308.19717 459.3233 308.46234Q458.2295 308.71646 457.16882 308.3629Q456.1082 307.98724 455.30164 307.1807ZM456.14133 306.36313Q457.2462 307.46796 458.46152 307.51218Q459.6879 307.54532 460.58282 306.6504Q461.48883 305.7444 461.4446 304.52905Q461.38937 303.30267 460.20718 302.12048Q459.46695 301.38022 458.6604 301.0819Q457.8649 300.77255 457.08044 300.9604Q456.28494 301.13715 455.68832 301.73376Q454.8376 302.5845 454.80444 303.78882Q454.7713 304.9931 456.14133 306.36313ZM466.04083 299.13736L466.86945 298.5076Q467.49924 299.38043 467.43292 300.3085Q467.36664 301.2366 466.6485 301.95474Q465.7425 302.86072 464.60452 302.82758Q463.46652 302.77234 462.36166 301.66748Q461.65454 300.9604 461.35623 300.19803Q461.05792 299.41357 461.26785 298.67334Q461.48883 297.92203 462.06335 297.3475Q462.77045 296.64038 463.58804 296.552Q464.40564 296.44153 465.2122 296.9829L464.59344 297.8226Q464.0521 297.48007 463.56595 297.5243Q463.06876 297.55743 462.6931 297.93307Q462.12964 298.49655 462.18488 299.2589Q462.22906 300.0102 463.1019 300.88303Q463.99683 301.77795 464.7371 301.83322Q465.47736 301.88846 466.0187 301.34708Q466.46066 300.90512 466.48276 300.3527Q466.5159 299.78925 466.04083 299.13736ZM469.98514 297.09338L470.7475 297.63477Q470.49338 298.02145 470.2503 298.26453Q469.84152 298.67334 469.49902 298.77277Q469.14545 298.86115 468.8361 298.75067Q468.53778 298.62912 467.86383 297.95517L465.3337 295.42505L464.79233 295.96643L464.2178 295.3919L464.7592 294.85052L463.66537 293.7567L463.96368 292.57452L465.49945 294.1103L466.25073 293.35898L466.82526 293.9335L466.07397 294.6848L468.6483 297.25912Q468.9687 297.57953 469.0902 297.63477Q469.2228 297.67896 469.36642 297.6458Q469.51007 297.61267 469.67578 297.44693Q469.80838 297.31436 469.98514 297.09338ZM468.67038 295.33667Q467.44397 294.1103 467.53238 292.85074Q467.6097 291.80115 468.4273 290.98355Q469.33328 290.07758 470.50443 290.09967Q471.67557 290.09967 472.7252 291.14926Q473.57593 292.0 473.80795 292.74026Q474.03998 293.4805 473.819 294.2539Q473.59802 295.00522 473.0235 295.57974Q472.10648 296.49677 470.94638 296.48572Q469.7863 296.45258 468.67038 295.33667ZM469.4327 294.5743Q470.2724 295.414 471.05685 295.46924Q471.85236 295.51346 472.4048 294.96103Q472.96826 294.39755 472.91302 293.6131Q472.85776 292.82864 471.99597 291.96686Q471.1784 291.14926 470.3829 291.10507Q469.59845 291.04984 469.04602 291.60226Q468.4936 292.1547 468.53778 292.9502Q468.58197 293.72357 469.4327 294.5743ZM476.78 291.62436L476.08395 292.3204L470.00723 286.2437L470.75854 285.4924L472.92407 287.65793Q472.81357 286.59726 473.5428 285.86807Q473.95157 285.45926 474.47086 285.27145Q474.99014 285.06152 475.52048 285.1278Q476.06186 285.18304 476.6143 285.4703Q477.1667 285.75757 477.64178 286.23267Q478.76874 287.35962 478.82397 288.5418Q478.8792 289.724 478.10583 290.4974Q477.32138 291.28186 476.22757 291.07193L476.78 291.62436ZM474.53714 289.4036Q475.3216 290.18805 475.89612 290.32062Q476.8242 290.5416 477.4208 289.94498Q477.90695 289.45883 477.84067 288.68546Q477.78543 287.901 476.9347 287.05026Q476.0729 286.18848 475.3216 286.1222Q474.57028 286.05588 474.08417 286.54202Q473.59802 287.02817 473.6643 287.82367Q473.7306 288.59705 474.53714 289.4036ZM482.63574 282.94022L483.49753 282.2552Q483.9947 283.10593 483.87317 283.97876Q483.75165 284.8516 482.9893 285.61395Q482.02805 286.57516 480.8569 286.55307Q479.6968 286.51993 478.62512 285.4482Q477.52026 284.34335 477.48712 283.16116Q477.4429 281.96793 478.3489 281.06195Q479.2328 280.17807 480.38184 280.22226Q481.54193 280.2554 482.63574 281.3492Q482.70203 281.4155 482.8346 281.5481L479.5532 284.8295Q480.3266 285.51453 481.07788 285.53662Q481.81815 285.54767 482.37057 284.99524Q482.77936 284.58643 482.8567 284.08926Q482.93405 283.56998 482.63574 282.94022ZM478.98972 284.17764L481.44247 281.72485Q480.8348 281.20557 480.3266 281.16138Q479.5311 281.0951 478.96762 281.65857Q478.44833 282.17786 478.4373 282.8739Q478.4373 283.55893 478.98972 284.17764ZM485.98343 282.42093L481.58612 278.0236L482.26007 277.34964L482.923 278.01254Q482.71307 277.2944 482.77936 276.94086Q482.84564 276.5652 483.1108 276.30002Q483.48648 275.92438 484.1052 275.76968L484.54712 276.71988Q484.1052 276.83035 483.84003 277.09552Q483.5859 277.34964 483.54172 277.7032Q483.49753 278.03464 483.68533 278.37717Q483.9505 278.90747 484.41455 279.37152L486.7237 281.68066L485.98343 282.42093Z" fill-rule="nonzero"/><path fill="#000000" d="M486.35153 319.79813L480.27484 313.72144L481.09244 312.90384L489.05844 314.4838L484.28546 309.71082L485.05887 308.9374L491.13556 315.01413L490.30692 315.84274L482.3409 314.26282L487.1139 319.0358L486.35153 319.79813ZM490.15225 311.60013Q488.92584 310.37372 489.01425 309.1142Q489.09158 308.06458 489.90918 307.24698Q490.81516 306.341 491.9863 306.3631Q493.15744 306.3631 494.20706 307.41272Q495.0578 308.26346 495.28983 309.0037Q495.52182 309.74396 495.30087 310.51736Q495.0799 311.26865 494.50537 311.84317Q493.58835 312.76022 492.42825 312.74918Q491.26816 312.716 490.15225 311.60013ZM490.91458 310.83777Q491.75427 311.67746 492.53873 311.7327Q493.33423 311.7769 493.88666 311.22446Q494.45013 310.66098 494.3949 309.87656Q494.33963 309.0921 493.47784 308.23032Q492.66025 307.41272 491.86478 307.36853Q491.08032 307.3133 490.5279 307.8657Q489.97546 308.41812 490.01965 309.21362Q490.06384 309.98703 490.91458 310.83777ZM498.7922 307.35748L492.72656 304.62848L493.511 303.84402L497.09073 305.5234Q497.66525 305.81067 498.25082 306.13107Q498.00775 305.68915 497.6984 305.02625L495.99692 301.35812L496.75928 300.59576L499.48825 306.6614L498.7922 307.35748ZM502.7034 300.61786L503.5652 299.93286Q504.06235 300.7836 503.94083 301.65643Q503.8193 302.52927 503.05695 303.2916Q502.09573 304.25284 500.92456 304.23074Q499.76447 304.1976 498.69278 303.1259Q497.58792 302.02103 497.55478 300.83884Q497.51056 299.6456 498.41656 298.73962Q499.30045 297.8557 500.4495 297.89993Q501.6096 297.93307 502.7034 299.0269Q502.76968 299.09317 502.90225 299.22574L499.62085 302.50717Q500.39426 303.19217 501.14554 303.21426Q501.8858 303.2253 502.43823 302.67288Q502.84702 302.2641 502.92435 301.7669Q503.0017 301.24762 502.7034 300.61786ZM499.05737 301.8553L501.51013 299.40253Q500.90247 298.88324 500.39426 298.83905Q499.59875 298.77277 499.03528 299.33624Q498.516 299.8555 498.50494 300.55157Q498.50494 301.23657 499.05737 301.8553ZM506.06213 300.08752L501.66483 295.69022L502.32773 295.0273L502.94644 295.64603Q502.82492 295.10464 502.9796 294.5743Q503.12323 294.03293 503.5652 293.591Q504.0513 293.10486 504.55954 292.99435Q505.07883 292.87283 505.56497 293.1159Q505.33295 291.8232 506.1616 290.99457Q506.8245 290.33167 507.53162 290.35376Q508.2387 290.35376 509.00107 291.11612L512.01733 294.13235L511.27707 294.87262L508.50388 292.09943Q508.06192 291.6575 507.7857 291.53595Q507.52054 291.40338 507.21118 291.46967Q506.90182 291.53595 506.63666 291.80112Q506.17264 292.26517 506.17264 292.88388Q506.1837 293.49155 506.86868 294.17657L509.4209 296.7288L508.66962 297.48007L505.808 294.6185Q505.31085 294.1213 504.87994 294.06607Q504.44907 293.98874 504.04025 294.39752Q503.71985 294.71793 503.62042 295.14883Q503.52097 295.5797 503.71985 296.02167Q503.91873 296.46362 504.51535 297.06024L506.8024 299.3473L506.06213 300.08752ZM514.5253 291.62436L513.8293 292.3204L507.75256 286.2437L508.50388 285.4924L510.6694 287.65793Q510.5589 286.59726 511.28812 285.86804Q511.6969 285.45926 512.2162 285.27142Q512.7355 285.06152 513.2658 285.1278Q513.8072 285.18304 514.3596 285.4703Q514.91205 285.75757 515.38715 286.23267Q516.51404 287.35962 516.56934 288.5418Q516.6246 289.724 515.85114 290.4974Q515.0667 291.28183 513.9729 291.07193L514.5253 291.62436ZM512.2825 289.4036Q513.0669 290.18805 513.6414 290.32062Q514.5695 290.5416 515.16614 289.94498Q515.6523 289.45883 515.586 288.68542Q515.53076 287.901 514.68 287.05026Q513.81824 286.18848 513.0669 286.12216Q512.3156 286.05588 511.8295 286.54202Q511.34335 287.02817 511.40964 287.82364Q511.47592 288.59705 512.2825 289.4036ZM520.38104 282.9402L521.24286 282.2552Q521.74005 283.10593 521.61847 283.97876Q521.49695 284.8516 520.7346 285.61395Q519.7734 286.57516 518.60223 286.55307Q517.44214 286.51993 516.3704 285.4482Q515.26556 284.34335 515.2324 283.16116Q515.18823 281.96793 516.09424 281.06195Q516.9781 280.17807 518.12714 280.22226Q519.28723 280.2554 520.38104 281.3492Q520.4473 281.4155 520.57996 281.54807L517.2985 284.8295Q518.0719 285.5145 518.82324 285.5366Q519.5635 285.54764 520.1159 284.9952Q520.5247 284.58643 520.60205 284.08923Q520.6794 283.56995 520.38104 282.9402ZM516.73505 284.17764L519.1878 281.72485Q518.58014 281.20557 518.0719 281.16138Q517.2764 281.0951 516.71295 281.65857Q516.19366 282.17786 516.1826 282.8739Q516.1826 283.5589 516.73505 284.17764ZM523.72876 282.4209L519.3314 278.0236L520.00543 277.34964L520.66833 278.01254Q520.4584 277.29437 520.5247 276.94083Q520.591 276.5652 520.85614 276.30002Q521.2318 275.92438 521.8505 275.76968L522.2925 276.71985Q521.8505 276.83035 521.5853 277.09552Q521.33124 277.34964 521.28705 277.7032Q521.24286 278.03464 521.43066 278.37714Q521.69586 278.90747 522.15985 279.37152L524.469 281.68066L523.72876 282.4209Z" fill-rule="nonzero"/><path fill="#000000" d="M523.3898 320.50525L517.31305 314.42856L519.4123 312.32935Q520.1194 311.62222 520.58344 311.33496Q521.22424 310.93723 521.8982 310.88196Q522.79315 310.80463 523.66595 311.21344Q524.5388 311.60013 525.34534 312.40668Q526.0414 313.10272 526.406 313.7988Q526.7816 314.4838 526.8811 315.09146Q526.9805 315.69913 526.87006 316.20737Q526.77057 316.70456 526.46124 317.2349Q526.1408 317.75418 525.5884 318.30658L523.3898 320.50525ZM523.47815 318.98056L524.7708 317.68787Q525.3785 317.0802 525.6105 316.62723Q525.8425 316.17422 525.8315 315.76544Q525.8425 315.20197 525.51105 314.56113Q525.1907 313.90927 524.5057 313.22427Q523.5555 312.27408 522.7268 312.08627Q521.8982 311.87634 521.2795 312.1415Q520.8265 312.35144 520.1194 313.05853L518.83777 314.34018L523.47815 318.98056ZM531.2563 309.81027L532.1181 309.12524Q532.6153 309.97598 532.4937 310.84882Q532.3722 311.72165 531.60986 312.484Q530.6486 313.44522 529.4775 313.42313Q528.3174 313.38998 527.24567 312.31827Q526.1408 311.21344 526.10767 310.03122Q526.0635 308.83798 526.9695 307.932Q527.85333 307.04813 529.0024 307.09232Q530.1625 307.12546 531.2563 308.21927Q531.3226 308.28555 531.4552 308.41815L528.17377 311.69955Q528.94714 312.38458 529.6985 312.40668Q530.4387 312.41772 530.99115 311.8653Q531.39996 311.45648 531.4773 310.95932Q531.5546 310.44003 531.2563 309.81027ZM527.6103 311.0477L530.06305 308.5949Q529.4554 308.07565 528.94714 308.03143Q528.1517 307.96515 527.5882 308.52863Q527.0689 309.0479 527.05786 309.74396Q527.05786 310.429 527.6103 311.0477ZM535.8746 304.79422L536.70325 304.16446Q537.333 305.0373 537.2667 305.96536Q537.20044 306.89346 536.48224 307.6116Q535.5763 308.51758 534.4383 308.48444Q533.3003 308.4292 532.19543 307.32434Q531.48834 306.61725 531.19 305.8549Q530.8917 305.07043 531.1016 304.3302Q531.3226 303.5789 531.8971 303.00436Q532.60425 302.29724 533.4218 302.20886Q534.23944 302.0984 535.04596 302.63977L534.42725 303.47946Q533.88586 303.13693 533.3997 303.18115Q532.9025 303.2143 532.5269 303.58994Q531.96344 304.1534 532.0187 304.91577Q532.06287 305.66705 532.93567 306.5399Q533.8306 307.4348 534.57086 307.49008Q535.3111 307.54532 535.8525 307.00394Q536.29443 306.56198 536.3165 306.00955Q536.3497 305.44608 535.8746 304.79422ZM540.44867 300.6179L541.3105 299.93286Q541.8077 300.7836 541.68616 301.65643Q541.5646 302.52927 540.80225 303.29163Q539.841 304.25284 538.66986 304.23074Q537.50977 304.1976 536.43805 303.1259Q535.3332 302.02103 535.30005 300.83884Q535.25586 299.6456 536.16187 298.73962Q537.0457 297.85574 538.19476 297.89993Q539.35486 297.93307 540.44867 299.0269Q540.515 299.09317 540.6476 299.22577L537.36615 302.50717Q538.1395 303.1922 538.89087 303.2143Q539.6311 303.22534 540.18353 302.6729Q540.59235 302.2641 540.6697 301.76694Q540.747 301.24765 540.44867 300.6179ZM536.8027 301.85532L539.25543 299.40253Q538.64777 298.88324 538.1395 298.83905Q537.34406 298.77277 536.7806 299.33624Q536.2613 299.85553 536.25024 300.55157Q536.25024 301.2366 536.8027 301.85532ZM543.80743 300.08755L539.41016 295.69022L540.07306 295.0273L540.6918 295.64603Q540.57025 295.10464 540.7249 294.5743Q540.8685 294.03293 541.3105 293.591Q541.79663 293.10486 542.3049 292.9944Q542.82416 292.87283 543.31024 293.1159Q543.07825 291.82324 543.90686 290.9946Q544.5698 290.3317 545.2769 290.3538Q545.984 290.3538 546.74634 291.11612L549.76263 294.1324L549.02234 294.87262L546.2492 292.09946Q545.80725 291.6575 545.531 291.53598Q545.26587 291.40338 544.9565 291.4697Q544.64716 291.53598 544.38196 291.80115Q543.9179 292.26517 543.9179 292.88388Q543.92896 293.49158 544.614 294.17657L547.1662 296.7288L546.4149 297.4801L543.55334 294.61853Q543.05615 294.12134 542.62524 294.0661Q542.19434 293.98874 541.7856 294.39755Q541.46515 294.71796 541.3657 295.14883Q541.2663 295.57974 541.46515 296.02167Q541.66406 296.46362 542.2607 297.06024L544.5477 299.3473L543.80743 300.08755ZM552.2706 291.62436L551.5746 292.3204L545.49786 286.2437L546.2492 285.49243L548.4147 287.65793Q548.3042 286.59726 549.0334 285.86807Q549.4422 285.45926 549.9615 285.27145Q550.4808 285.06152 551.0111 285.1278Q551.5525 285.18307 552.1049 285.47034Q552.65735 285.7576 553.13245 286.23267Q554.2594 287.35962 554.31464 288.5418Q554.3699 289.724 553.59644 290.4974Q552.812 291.28186 551.7182 291.07193L552.2706 291.62436ZM550.0278 289.4036Q550.81226 290.18805 551.3868 290.32062Q552.3148 290.5416 552.91144 289.94498Q553.3976 289.45883 553.3313 288.68546Q553.27606 287.901 552.4253 287.05026Q551.56354 286.18848 550.81226 286.1222Q550.0609 286.0559 549.57477 286.54202Q549.0887 287.02817 549.15497 287.82367Q549.22125 288.59705 550.0278 289.4036ZM558.12634 282.94022L558.98816 282.2552Q559.48535 283.10593 559.36383 283.97876Q559.24225 284.8516 558.4799 285.61395Q557.5187 286.57516 556.34753 286.55307Q555.18744 286.51993 554.1157 285.4482Q553.01086 284.34338 552.9777 283.16116Q552.93353 281.96793 553.83954 281.06195Q554.7234 280.17807 555.87244 280.22226Q557.03253 280.2554 558.12634 281.3492Q558.1926 281.4155 558.32526 281.5481L555.0438 284.8295Q555.8172 285.51453 556.56854 285.53662Q557.3088 285.54767 557.8612 284.99524Q558.27 284.58643 558.34735 284.08926Q558.4247 283.56998 558.12634 282.94022ZM554.48035 284.17764L556.9331 281.72485Q556.32544 281.2056 555.8172 281.16138Q555.0217 281.0951 554.45825 281.65857Q553.93896 282.17786 553.9279 282.8739Q553.9279 283.55893 554.48035 284.17764ZM561.47406 282.42093L557.0768 278.0236L557.75073 277.34964L558.41364 278.01254Q558.2037 277.2944 558.27 276.94086Q558.3363 276.5652 558.60144 276.30002Q558.9771 275.92438 559.5958 275.7697L560.0378 276.71988Q559.5958 276.83035 559.3306 277.09552Q559.07654 277.34964 559.03235 277.7032Q558.98816 278.03464 559.17596 278.37717Q559.44116 278.9075 559.90515 279.37152L562.2143 281.68066L561.47406 282.42093Z" fill-rule="nonzero"/><path fill="#757575" d="M20.159374 37.55L20.159374 23.2375L22.05 23.2375L22.05 29.1125L29.4875 29.1125L29.4875 23.2375L31.378124 23.2375L31.378124 37.55L29.4875 37.55L29.4875 30.8L22.05 30.8L22.05 37.55L20.159374 37.55ZM32.221874 32.3625Q32.221874 29.4875 33.815624 28.096874Q35.159374 26.940624 37.08125 26.940624Q39.221874 26.940624 40.565624 28.346874Q41.925 29.753124 41.925 32.221874Q41.925 34.221874 41.33125 35.378124Q40.7375 36.51875 39.58125 37.159374Q38.440624 37.784374 37.08125 37.784374Q34.89375 37.784374 33.55 36.39375Q32.221874 34.9875 32.221874 32.3625ZM34.01875 32.3625Q34.01875 34.3625 34.878124 35.346874Q35.753124 36.33125 37.08125 36.33125Q38.39375 36.33125 39.253124 35.346874Q40.128124 34.346874 40.128124 32.3Q40.128124 30.378124 39.253124 29.39375Q38.378124 28.39375 37.08125 28.39375Q35.753124 28.39375 34.878124 29.39375Q34.01875 30.378124 34.01875 32.3625ZM50.659374 37.55L50.659374 36.01875Q49.45625 37.784374 47.378124 37.784374Q46.45625 37.784374 45.659374 37.440624Q44.8625 37.08125 44.471874 36.55Q44.096874 36.01875 43.940624 35.2375Q43.83125 34.721874 43.83125 33.596874L43.83125 27.175L45.58125 27.175L45.58125 32.925Q45.58125 34.3 45.690624 34.784374Q45.8625 35.471874 46.39375 35.878124Q46.940624 36.26875 47.721874 36.26875Q48.51875 36.26875 49.20625 35.8625Q49.909374 35.45625 50.190624 34.76875Q50.4875 34.065624 50.4875 32.7375L50.4875 27.175L52.2375 27.175L52.2375 37.55L50.659374 37.55ZM53.846874 37.55L53.846874 27.175L55.425 27.175L55.425 28.753124Q56.034374 27.64375 56.55 27.3Q57.065624 26.940624 57.675 26.940624Q58.565624 26.940624 59.4875 27.503124L58.878124 29.14375Q58.2375 28.753124 57.596874 28.753124Q57.01875 28.753124 56.55 29.1125Q56.096874 29.45625 55.89375 30.065624Q55.6125 31.003124 55.6125 32.1125L55.6125 37.55L53.846874 37.55ZM60.159374 34.45625L61.909374 34.175Q62.05 35.221874 62.721874 35.784374Q63.39375 36.33125 64.59688 36.33125Q65.8 36.33125 66.37813 35.846874Q66.97188 35.346874 66.97188 34.690624Q66.97188 34.096874 66.45625 33.753124Q66.09688 33.51875 64.65938 33.159374Q62.721874 32.659374 61.971874 32.315624Q61.2375 31.95625 60.846874 31.33125Q60.45625 30.690624 60.45625 29.925Q60.45625 29.2375 60.76875 28.64375Q61.096874 28.05 61.64375 27.659374Q62.05 27.3625 62.753124 27.159374Q63.471874 26.940624 64.28438 26.940624Q65.50313 26.940624 66.425 27.3Q67.34688 27.64375 67.78438 28.253124Q68.22188 28.846874 68.39375 29.846874L66.675 30.08125Q66.55 29.284374 65.9875 28.846874Q65.425 28.39375 64.40938 28.39375Q63.190624 28.39375 62.675 28.8Q62.159374 29.190624 62.159374 29.721874Q62.159374 30.065624 62.378124 30.346874Q62.58125 30.628124 63.05 30.815624Q63.315624 30.909374 64.59688 31.253124Q66.47188 31.753124 67.20625 32.08125Q67.94063 32.39375 68.3625 33.003124Q68.78438 33.596874 68.78438 34.503124Q68.78438 35.378124 68.26875 36.159374Q67.75313 36.940624 66.78438 37.3625Q65.81563 37.784374 64.59688 37.784374Q62.58125 37.784374 61.51875 36.940624Q60.45625 36.096874 60.159374 34.45625ZM76.8625 41.51875L76.8625 27.175L78.47188 27.175L78.47188 28.51875Q79.03438 27.7375 79.7375 27.346874Q80.45625 26.940624 81.47188 26.940624Q82.8 26.940624 83.81563 27.628124Q84.83125 28.315624 85.34688 29.565624Q85.87813 30.8 85.87813 32.284374Q85.87813 33.878124 85.3 35.159374Q84.7375 36.425 83.64375 37.1125Q82.55 37.784374 81.34688 37.784374Q80.47188 37.784374 79.76875 37.409374Q79.08125 37.034374 78.62813 36.471874L78.62813 41.51875L76.8625 41.51875ZM78.45625 32.425Q78.45625 34.425 79.26875 35.378124Q80.08125 36.33125 81.2375 36.33125Q82.40938 36.33125 83.2375 35.346874Q84.08125 34.3625 84.08125 32.26875Q84.08125 30.3 83.25313 29.315624Q82.44063 28.315624 81.31563 28.315624Q80.19063 28.315624 79.31563 29.378124Q78.45625 30.425 78.45625 32.425ZM94.97188 34.20625L96.78438 34.440624Q96.3625 36.01875 95.19063 36.909374Q94.03438 37.784374 92.22188 37.784374Q89.95625 37.784374 88.6125 36.39375Q87.28438 34.9875 87.28438 32.45625Q87.28438 29.83125 88.62813 28.39375Q89.97188 26.940624 92.12813 26.940624Q94.20625 26.940624 95.51875 28.3625Q96.84688 29.76875 96.84688 32.346874Q96.84688 32.503124 96.83125 32.815624L89.09688 32.815624Q89.19063 34.51875 90.06563 35.425Q90.94063 36.33125 92.2375 36.33125Q93.20625 36.33125 93.87813 35.83125Q94.56563 35.315624 94.97188 34.20625ZM89.19063 31.3625L94.9875 31.3625Q94.87813 30.065624 94.33125 29.409374Q93.4875 28.39375 92.14375 28.39375Q90.94063 28.39375 90.1125 29.20625Q89.28438 30.003124 89.19063 31.3625ZM98.84688 37.55L98.84688 27.175L100.425 27.175L100.425 28.753124Q101.03438 27.64375 101.55 27.3Q102.06563 26.940624 102.675 26.940624Q103.56563 26.940624 104.4875 27.503124L103.87813 29.14375Q103.2375 28.753124 102.59688 28.753124Q102.01875 28.753124 101.55 29.1125Q101.09688 29.45625 100.89375 30.065624Q100.6125 31.003124 100.6125 32.1125L100.6125 37.55L98.84688 37.55ZM111.8625 37.55L111.8625 27.175L113.44063 27.175L113.44063 28.628124Q113.925 27.878124 114.7375 27.409374Q115.55 26.940624 116.58125 26.940624Q117.7375 26.940624 118.47188 27.425Q119.20625 27.89375 119.51875 28.753124Q120.75313 26.940624 122.72188 26.940624Q124.26875 26.940624 125.09688 27.8Q125.925 28.659374 125.925 30.425L125.925 37.55L124.175 37.55L124.175 31.01875Q124.175 29.95625 124.00313 29.503124Q123.83125 29.034374 123.37813 28.753124Q122.94063 28.471874 122.33125 28.471874Q121.2375 28.471874 120.50313 29.20625Q119.78438 29.925 119.78438 31.51875L119.78438 37.55L118.03438 37.55L118.03438 30.815624Q118.03438 29.64375 117.59688 29.065624Q117.175 28.471874 116.19063 28.471874Q115.45625 28.471874 114.81563 28.8625Q114.19063 29.253124 113.90938 30.003124Q113.62813 30.753124 113.62813 32.175L113.62813 37.55L111.8625 37.55ZM127.22188 32.3625Q127.22188 29.4875 128.81563 28.096874Q130.15938 26.940624 132.08125 26.940624Q134.22188 26.940624 135.56563 28.346874Q136.925 29.753124 136.925 32.221874Q136.925 34.221874 136.33125 35.378124Q135.7375 36.51875 134.58125 37.159374Q133.44063 37.784374 132.08125 37.784374Q129.89375 37.784374 128.55 36.39375Q127.22188 34.9875 127.22188 32.3625ZM129.01875 32.3625Q129.01875 34.3625 129.87813 35.346874Q130.75313 36.33125 132.08125 36.33125Q133.39375 36.33125 134.25313 35.346874Q135.12813 34.346874 135.12813 32.3Q135.12813 30.378124 134.25313 29.39375Q133.37813 28.39375 132.08125 28.39375Q130.75313 28.39375 129.87813 29.39375Q129.01875 30.378124 129.01875 32.3625ZM138.8625 37.55L138.8625 27.175L140.45625 27.175L140.45625 28.659374Q141.59688 26.940624 143.75313 26.940624Q144.69063 26.940624 145.47188 27.284374Q146.26875 27.6125 146.65938 28.159374Q147.05 28.70625 147.20625 29.45625Q147.3 29.95625 147.3 31.175L147.3 37.55L145.53438 37.55L145.53438 31.2375Q145.53438 30.159374 145.33125 29.628124Q145.12813 29.096874 144.59688 28.784374Q144.08125 28.471874 143.37813 28.471874Q142.25313 28.471874 141.44063 29.190624Q140.62813 29.89375 140.62813 31.878124L140.62813 37.55L138.8625 37.55ZM152.70625 35.971874L152.95625 37.534374Q152.22188 37.690624 151.62813 37.690624Q150.675 37.690624 150.14375 37.39375Q149.62813 37.08125 149.40938 36.596874Q149.19063 36.096874 149.19063 34.51875L149.19063 28.55L147.90938 28.55L147.90938 27.175L149.19063 27.175L149.19063 24.6125L150.94063 23.55L150.94063 27.175L152.70625 27.175L152.70625 28.55L150.94063 28.55L150.94063 34.6125Q150.94063 35.3625 151.03438 35.58125Q151.12813 35.784374 151.33125 35.925Q151.55 36.05 151.94063 36.05Q152.22188 36.05 152.70625 35.971874ZM154.8625 37.55L154.8625 23.2375L156.62813 23.2375L156.62813 28.3625Q157.8625 26.940624 159.7375 26.940624Q160.87813 26.940624 161.72188 27.39375Q162.58125 27.846874 162.94063 28.659374Q163.31563 29.45625 163.31563 30.971874L163.31563 37.55L161.56563 37.55L161.56563 30.971874Q161.56563 29.659374 160.9875 29.065624Q160.40938 28.45625 159.37813 28.45625Q158.59688 28.45625 157.89375 28.8625Q157.20625 29.26875 156.90938 29.971874Q156.62813 30.659374 156.62813 31.878124L156.62813 37.55L154.8625 37.55Z" fill-rule="nonzero"/></svg>